<svg width="200" height="170" viewBox="0 0 200 170" fill="none" xmlns="http://www.w3.org/2000/svg">
<path opacity="0.1" d="M100 169.999C146.944 169.999 185 131.943 185 84.9995C185 38.0556 146.944 0 100 0C53.0559 0 15 38.0556 15 84.9995C15 131.943 53.0559 169.999 100 169.999Z" fill="black"/>
<path d="M63.2251 59.5033C63.5324 59.1588 63.9045 58.8781 64.3203 58.6774C64.7361 58.4767 65.1873 58.3598 65.6482 58.3335C66.1092 58.3071 66.5708 58.3718 67.0067 58.5239C67.4426 58.676 67.8443 58.9124 68.1889 59.2197L79.4087 69.2267L74.7283 74.4743L63.5085 64.4673C63.1639 64.16 62.8833 63.7878 62.6825 63.372C62.4818 62.9562 62.365 62.505 62.3386 62.044C62.3123 61.583 62.377 61.1214 62.5291 60.6855C62.6812 60.2496 62.9177 59.8478 63.2251 59.5033Z" fill="white"/>
<path d="M74.7557 74.9639L63.2776 64.726C62.899 64.3884 62.5906 63.9795 62.3701 63.5226C62.1495 63.0658 62.0211 62.57 61.9921 62.0635C61.9632 61.5571 62.0343 61.0499 62.2013 60.5709C62.3684 60.0919 62.6282 59.6505 62.9659 59.272C63.3035 58.8934 63.7124 58.585 64.1693 58.3644C64.6261 58.1439 65.1219 58.0155 65.6284 57.9865C66.1348 57.9576 66.642 58.0287 67.121 58.1957C67.6 58.3628 68.0414 58.6226 68.42 58.9602L79.8993 69.1983L74.7557 74.9639ZM65.8519 58.6744C65.7904 58.6744 65.7288 58.6761 65.667 58.6796C65.0414 58.7155 64.4404 58.9361 63.9401 59.3135C63.4398 59.691 63.0627 60.2083 62.8564 60.8C62.6501 61.3918 62.6239 62.0315 62.7811 62.6381C62.9384 63.2447 63.272 63.7912 63.7397 64.2082L74.7005 73.9842L78.9186 69.255L67.9578 59.4791C67.3797 58.9601 66.6299 58.6734 65.8529 58.6744H65.8519Z" fill="black"/>
<path d="M125.271 74.4739L120.59 69.2265L131.81 59.2195C132.506 58.5989 133.42 58.2801 134.351 58.3333C135.282 58.3865 136.153 58.8073 136.774 59.5031C137.395 60.199 137.713 61.1128 137.66 62.0437C137.607 62.9746 137.186 63.8463 136.49 64.4669L125.271 74.4739Z" fill="white"/>
<path d="M125.243 74.9639L120.101 69.1983L131.58 58.9602C132.345 58.2783 133.349 57.9281 134.372 57.9865C135.395 58.045 136.352 58.5074 137.034 59.272C137.716 60.0366 138.066 61.0407 138.008 62.0636C137.95 63.0864 137.487 64.0441 136.723 64.726L125.243 74.9639ZM121.082 69.2545L125.3 73.9837L136.26 64.2082C136.571 63.9313 136.824 63.5959 137.005 63.2211C137.186 62.8464 137.291 62.4398 137.315 62.0243C137.338 61.6089 137.28 61.1929 137.143 60.8C137.006 60.4072 136.793 60.0451 136.516 59.7346C136.239 59.4241 135.904 59.1712 135.529 58.9903C135.154 58.8094 134.747 58.7041 134.332 58.6803C133.917 58.6566 133.501 58.7149 133.108 58.852C132.715 58.989 132.353 59.2021 132.042 59.4791L121.082 69.2545Z" fill="black"/>
<path d="M129.944 80.9831C132.446 92.066 135.872 99.1962 134.166 103.291C133.269 105.444 131.429 107.249 128.382 107.249C123.632 107.249 123.632 101.647 118.881 101.647C114.131 101.647 114.132 107.249 109.382 107.249C104.633 107.249 104.633 101.647 99.8843 101.647C95.1351 101.647 95.1349 107.249 90.3855 107.249C85.6362 107.249 85.6364 101.647 80.8873 101.647C76.1382 101.647 76.1387 107.249 71.3901 107.249C68.5706 107.249 66.9768 105.588 65.966 103.669C63.537 99.0593 69.1982 88.9149 71.3901 79.9692C73.8119 70.0843 73.6079 57.7718 73.9328 50.346C74.5596 36.0255 85.552 24.3916 99.8874 24.3916C114.223 24.3916 124.798 36.0498 125.842 50.346C126.405 58.053 127.652 70.8377 129.944 80.9831Z" fill="white"/>
<path d="M128.382 107.599C125.844 107.599 124.584 106.112 123.365 104.673C122.197 103.296 121.094 101.996 118.882 101.996C116.669 101.996 115.568 103.296 114.399 104.673C113.18 106.111 111.919 107.599 109.383 107.599C106.846 107.599 105.585 106.112 104.367 104.673C103.199 103.296 102.096 101.996 99.8843 101.996C97.6722 101.996 96.5703 103.296 95.4021 104.673C94.183 106.111 92.9226 107.599 90.3856 107.599C87.8486 107.599 86.5877 106.112 85.3708 104.675C84.2034 103.298 83.101 101.998 80.8886 101.998C78.6763 101.998 77.5746 103.298 76.407 104.675C75.1883 106.112 73.928 107.6 71.3915 107.6C68.8684 107.6 66.9929 106.369 65.6575 103.834C63.964 100.62 65.9979 94.9366 68.1518 88.921C69.2213 85.9327 70.3266 82.843 71.0515 79.8881C72.9884 71.9825 73.2336 62.6932 73.4303 55.2288C73.4767 53.4633 73.5207 51.7955 73.5857 50.3326C73.8964 43.2441 76.7148 36.6467 81.523 31.7552C83.9127 29.3063 86.7697 27.3619 89.9246 26.0373C93.0796 24.7127 96.4683 24.0348 99.89 24.0438C103.29 24.0357 106.656 24.7157 109.786 26.0428C112.916 27.3699 115.745 29.3167 118.102 31.7659C122.799 36.6019 125.673 43.1926 126.194 50.3225C126.696 57.1975 127.895 70.3123 130.288 80.9082C131.099 84.502 132.007 87.6764 132.809 90.4773C134.482 96.3259 135.691 100.551 134.492 103.428C133.84 104.985 132.183 107.599 128.382 107.599ZM118.882 101.297C121.419 101.297 122.679 102.783 123.899 104.222C125.066 105.599 126.169 106.9 128.382 106.9C131.777 106.9 133.261 104.555 133.843 103.157C134.948 100.507 133.766 96.3803 132.133 90.6686C131.33 87.8587 130.418 84.6744 129.602 81.0614C127.199 70.4205 125.996 57.2666 125.493 50.3725C124.426 35.761 113.418 24.7426 99.8872 24.7426C86.1584 24.7426 74.9113 35.9958 74.2814 50.3622C74.2177 51.8188 74.1737 53.4835 74.126 55.2459C73.9388 62.3481 73.6823 72.0746 71.7275 80.0535C70.9951 83.0434 69.8826 86.151 68.8071 89.1561C66.7068 95.0228 64.7231 100.565 66.2731 103.507C67.476 105.79 69.1488 106.899 71.3876 106.899C73.5997 106.899 74.7016 105.599 75.8692 104.222C77.0879 102.784 78.3483 101.296 80.8848 101.296C83.4213 101.296 84.6821 102.783 85.9008 104.222C87.0682 105.599 88.1706 106.899 90.383 106.899C92.5953 106.899 93.6983 105.598 94.8654 104.222C96.0846 102.784 97.345 101.296 99.8817 101.296C102.418 101.296 103.679 102.783 104.898 104.222C106.065 105.599 107.167 106.899 109.38 106.899C111.593 106.899 112.695 105.598 113.863 104.222C115.084 102.785 116.345 101.297 118.882 101.297Z" fill="black"/>
<path d="M90.1345 52.0205C91.7234 52.0205 93.0115 50.7324 93.0115 49.1435C93.0115 47.5547 91.7234 46.2666 90.1345 46.2666C88.5456 46.2666 87.2576 47.5547 87.2576 49.1435C87.2576 50.7324 88.5456 52.0205 90.1345 52.0205Z" fill="black"/>
<path d="M109.862 52.0205C111.451 52.0205 112.739 50.7324 112.739 49.1435C112.739 47.5547 111.451 46.2666 109.862 46.2666C108.273 46.2666 106.985 47.5547 106.985 49.1435C106.985 50.7324 108.273 52.0205 109.862 52.0205Z" fill="black"/>
<path d="M105.151 56.9085C105.317 56.908 105.481 56.9447 105.631 57.0156C105.782 57.0866 105.914 57.1901 106.019 57.3187C106.124 57.4473 106.199 57.5977 106.239 57.7589C106.278 57.9202 106.282 58.0882 106.248 58.2509C105.631 61.1353 103.068 62.9484 99.9992 62.9484C96.9304 62.9484 94.367 61.1361 93.7502 58.2509C93.7168 58.0882 93.72 57.9201 93.7596 57.7589C93.7993 57.5976 93.8744 57.4472 93.9795 57.3186C94.0846 57.19 94.217 57.0865 94.3672 57.0155C94.5173 56.9446 94.6814 56.908 94.8475 56.9085H105.151Z" fill="white"/>
<path d="M99.999 63.2983C96.6927 63.2983 94.0441 61.2993 93.4078 58.3238C93.3624 58.1119 93.3652 57.8926 93.416 57.682C93.4667 57.4714 93.564 57.2749 93.7008 57.1069C93.8387 56.9356 94.0133 56.7975 94.2118 56.7027C94.4102 56.6079 94.6274 56.5589 94.8473 56.5593H105.152C105.372 56.559 105.589 56.608 105.787 56.7028C105.986 56.7975 106.16 56.9357 106.298 57.1069C106.435 57.2749 106.532 57.4714 106.583 57.682C106.634 57.8926 106.637 58.1119 106.591 58.3238C105.954 61.2993 103.304 63.2983 99.999 63.2983ZM94.8468 57.2584C94.7312 57.2583 94.6172 57.2841 94.5129 57.3339C94.4087 57.3837 94.317 57.4563 94.2445 57.5463C94.1735 57.6334 94.1229 57.7353 94.0965 57.8445C94.0701 57.9538 94.0686 58.0676 94.092 58.1775C94.6572 60.8217 97.0309 62.5983 99.9985 62.5983C102.966 62.5983 105.34 60.8217 105.905 58.1775C105.929 58.0675 105.927 57.9537 105.9 57.8445C105.874 57.7352 105.823 57.6333 105.752 57.5463C105.68 57.4563 105.588 57.3837 105.484 57.3339C105.38 57.2841 105.266 57.2582 105.15 57.2584H94.8468Z" fill="black"/>
<path d="M167.625 136.503C152.096 156.863 127.583 170 100.001 170C72.4201 170 47.9069 156.863 32.3777 136.503C50.105 129.834 73.8725 125.756 100.001 125.756C126.13 125.756 149.896 129.834 167.625 136.503Z" fill="black"/>
<path d="M174.759 44.5172L131.136 44.3308C131.136 37.0452 135.239 35.6109 139.602 34.4277C143.965 33.2445 145.927 25.2366 153.508 24.7809C157.985 24.5117 160.333 25.6638 162.277 27.1473C162.28 27.1499 162.28 27.1525 162.282 27.1525C167.154 32.394 171.346 38.2281 174.759 44.5172Z" fill="white"/>
<path d="M50.3234 98.6516L16.1167 98.7992C15.5324 95.2277 15.1778 91.6224 15.0552 88.0055C22.5479 86.944 21.7816 80.9892 30.7293 81.5303C37.3677 81.929 39.092 88.9427 42.9109 89.9783C46.7297 91.0139 50.3234 92.2735 50.3234 98.6516Z" fill="white"/>
</svg>
