<svg width="132" height="170" viewBox="0 0 132 170" fill="none" xmlns="http://www.w3.org/2000/svg">
<path d="M0.919678 72.1356L66.117 121.784L131.314 72.1356L66.0945 0L0.919678 72.1356Z" fill="black"/>
<path d="M118.68 10.5359H13.554V148.045H118.68V10.5359Z" fill="white"/>
<path d="M118.849 148.247H13.385V10.3337H118.849V148.247ZM13.7229 147.843H118.511V10.7379H13.7227L13.7229 147.843Z" fill="black"/>
<path d="M45.2375 22.8672H23.6704V48.6793H45.2375V22.8672Z" fill="white"/>
<path d="M45.4062 48.8813H23.5012V22.6648H45.4062V48.8813ZM23.8392 48.4771H45.0685V23.069H23.8389L23.8392 48.4771Z" fill="black"/>
<path d="M108.966 58.7969H23.6704V59.201H108.966V58.7969Z" fill="black"/>
<path d="M108.966 68.4805H23.6704V68.8846H108.966V68.4805Z" fill="black"/>
<path d="M108.966 78.1641H23.6704V78.5682H108.966V78.1641Z" fill="black"/>
<path d="M108.966 87.8477H23.6704V88.2518H108.966V87.8477Z" fill="black"/>
<path d="M108.966 97.5315H23.6704V97.9357H108.966V97.5315Z" fill="black"/>
<path d="M108.966 107.215H23.6704V107.619H108.966V107.215Z" fill="black"/>
<path d="M131.314 169.375H0.919678V72.1355L66.117 119.763L131.314 72.1355V169.375Z" fill="#757575"/>
<path opacity="0.83" d="M131.314 169.375H0.919678V72.1355L66.117 119.763L131.314 72.1355V169.375Z" fill="white"/>
</svg>
