<svg xmlns="http://www.w3.org/2000/svg" width="200" height="169" fill="none"><g clip-path="url(#a)"><path fill="#000" d="M199.083 115.115c-5.462-27.546-37.465-49.56-43.708-78.267C144.031.328 106.638-5.446 82.339 10.415c-38.501 25.132 2.572 31.368-72.917 90.828-18.64 14.682-12.7 79.491 45.94 64.619 31.557-8.004 41.15-9.128 55.345-10.446 35.778-3.323 97.546 5.938 88.376-40.301Z" opacity=".1"/><path fill="#fff" d="m162.809 161.984-122.533.101c-4.864.004-8.153-3.278-8.157-8.14l-.074-76.722 138.833-.115.074 76.721c.002 4.862-3.281 8.151-8.143 8.155Z"/><path fill="#000" d="M40.263 162.413c-2.47 0-4.587-.809-6.122-2.341-1.535-1.533-2.35-3.653-2.353-6.128l-.074-77.05h.328l139.161-.115.075 77.049c.004 5.071-3.4 8.481-8.469 8.485l-122.533.101-.013-.001ZM32.371 77.55l.074 76.393c.002 2.298.748 4.256 2.16 5.664 1.41 1.409 3.365 2.15 5.658 2.15h.01l122.533-.101c4.678-.004 7.818-3.151 7.812-7.828l-.074-76.393-138.173.115Z"/><path fill="#000" d="m170.962 76.565-66.207-50.242a5.534 5.534 0 0 0-6.677.005L31.955 76.681a.63.63 0 0 0 .105 1.066l62.845 30.639a13.74 13.74 0 0 0 11.861.239l.197-.091 63.894-30.9a.63.63 0 0 0 .106-1.068h-.001Z"/><path fill="#fff" d="M129.534 53.386c2.346 10.39 5.559 17.076 3.959 20.915-.841 2.019-2.566 3.71-5.423 3.71-4.453 0-4.453-5.253-8.907-5.253s-4.453 5.252-8.906 5.252-4.452-5.252-8.905-5.252c-4.453 0-4.453 5.252-8.905 5.252-4.453 0-4.453-5.252-8.906-5.252-4.452 0-4.451 5.252-8.904 5.252-2.643 0-4.137-1.557-5.085-3.355-2.277-4.323 3.03-13.834 5.085-22.22 2.271-9.269 2.08-20.811 2.384-27.774C77.61 11.236 87.916.328 101.355.328s23.355 10.93 24.334 24.334c.528 7.226 1.697 19.212 3.845 28.724Z"/><path fill="#000" d="M128.07 78.34c-2.379 0-3.561-1.394-4.704-2.742-1.095-1.291-2.128-2.51-4.203-2.51s-3.108 1.219-4.202 2.51c-1.143 1.348-2.325 2.742-4.703 2.742s-3.56-1.394-4.703-2.742c-1.094-1.291-2.128-2.51-4.202-2.51-2.073 0-3.107 1.219-4.201 2.51-1.143 1.348-2.325 2.742-4.703 2.742-2.379 0-3.56-1.394-4.703-2.742-1.095-1.291-2.128-2.51-4.202-2.51-2.073 0-3.107 1.219-4.201 2.51-1.143 1.348-2.325 2.742-4.703 2.742-2.365 0-4.124-1.155-5.376-3.532-1.587-3.013.32-8.341 2.339-13.983a88.274 88.274 0 0 0 2.718-8.468c1.816-7.412 2.046-16.121 2.23-23.12.044-1.655.085-3.219.145-4.59a26.39 26.39 0 0 1 7.442-17.418A23.973 23.973 0 0 1 101.355 0a23.625 23.625 0 0 1 17.076 7.24c4.403 4.534 7.098 10.713 7.586 17.397.471 6.445 1.595 18.743 3.838 28.676.761 3.37 1.612 6.345 2.363 8.971 1.569 5.484 2.703 9.445 1.579 12.142-.61 1.464-2.163 3.914-5.727 3.914Zm-8.907-5.909c2.379 0 3.561 1.394 4.704 2.743 1.094 1.29 2.128 2.51 4.203 2.51 3.184 0 4.575-2.2 5.12-3.509 1.036-2.485-.071-6.354-1.603-11.71-.755-2.634-1.609-5.619-2.373-9.007-2.253-9.975-3.381-22.309-3.853-28.772-1-13.699-11.321-24.03-24.006-24.03-12.871 0-23.416 10.551-24.005 24.02-.06 1.366-.102 2.927-.145 4.58-.175 6.658-.416 15.777-2.249 23.258a88.766 88.766 0 0 1-2.738 8.534c-1.97 5.5-3.829 10.697-2.376 13.455 1.128 2.14 2.696 3.18 4.795 3.18 2.074 0 3.108-1.219 4.202-2.51 1.143-1.348 2.324-2.741 4.702-2.741s3.56 1.393 4.703 2.742c1.095 1.29 2.128 2.51 4.202 2.51s3.108-1.22 4.201-2.51c1.143-1.349 2.325-2.742 4.703-2.742s3.56 1.394 4.703 2.742c1.095 1.29 2.128 2.51 4.202 2.51s3.108-1.22 4.201-2.51c1.147-1.349 2.328-2.743 4.707-2.743Z"/><path fill="#000" d="M92.211 26.232a2.697 2.697 0 1 0 0-5.395 2.697 2.697 0 0 0 0 5.395ZM110.707 26.232a2.697 2.697 0 1 0 0-5.394 2.697 2.697 0 0 0 0 5.394Z"/><path fill="#fff" d="M106.289 30.815a1.043 1.043 0 0 1 .814.384 1.053 1.053 0 0 1 .215.874c-.578 2.705-2.982 4.404-5.859 4.404s-5.28-1.7-5.859-4.404a1.05 1.05 0 0 1 .579-1.158c.14-.066.294-.1.45-.1h9.66Z"/><path fill="#000" d="M101.46 36.806c-3.1 0-5.583-1.875-6.18-4.664A1.356 1.356 0 0 1 95.557 31a1.376 1.376 0 0 1 1.074-.514h9.661a1.376 1.376 0 0 1 1.074.514c.129.157.22.342.267.54.048.197.051.403.008.602-.597 2.79-3.081 4.664-6.18 4.664Zm-4.831-5.663a.724.724 0 0 0-.703.549.704.704 0 0 0-.005.312c.53 2.479 2.756 4.144 5.538 4.144 2.783 0 5.008-1.665 5.538-4.145a.698.698 0 0 0-.144-.59.73.73 0 0 0-.564-.27h-9.66Z"/></g><defs><clipPath id="a"><path fill="#fff" d="M0 0h200v169H0z"/></clipPath></defs></svg>