<svg width="200" height="170" viewBox="0 0 200 170" fill="none" xmlns="http://www.w3.org/2000/svg">
<g clip-path="url(#clip0_2268_543)">
<path opacity="0.1" d="M199.083 117.491C193.62 89.9612 161.617 67.9584 155.375 39.2704C144.031 2.77147 106.638 -2.99909 82.339 12.8524C43.8377 37.9692 84.9106 44.2022 9.42202 103.627C-9.21781 118.3 -3.27832 183.071 55.3615 168.207C86.9189 160.207 96.5122 159.085 110.707 157.767C146.485 154.448 208.252 163.703 199.083 117.491Z" fill="#ADADAD"/>
<path d="M156.341 124.391L101.042 153.58L45.8271 124.391V80.313H156.341V124.391Z" fill="white"/>
<path d="M101.042 154.027C100.969 154.028 100.897 154.01 100.833 153.975L45.6193 124.786C45.5475 124.748 45.4874 124.692 45.4453 124.622C45.4033 124.553 45.3809 124.473 45.3806 124.392V80.3129C45.3806 80.1942 45.4278 80.0803 45.5118 79.9964C45.5958 79.9124 45.7098 79.8652 45.8286 79.8652H156.341C156.46 79.8652 156.574 79.9124 156.658 79.9964C156.742 80.0803 156.789 80.1942 156.789 80.3129V124.391C156.789 124.472 156.767 124.551 156.725 124.621C156.683 124.69 156.622 124.747 156.551 124.785L101.252 153.974C101.187 154.009 101.116 154.027 101.042 154.027ZM46.2751 124.122L101.042 153.074L155.893 124.121V80.7606H46.2751V124.122Z" fill="black"/>
<path d="M156.341 70.8544L101.042 41.6653L125.892 29.6948L181.19 58.8842L156.341 70.8544Z" fill="white"/>
<path d="M156.341 71.3022C156.268 71.3022 156.197 71.2845 156.132 71.2506L100.833 42.0612C100.76 42.0224 100.699 41.9641 100.657 41.8928C100.615 41.8214 100.593 41.7398 100.595 41.657C100.596 41.5741 100.621 41.4933 100.665 41.4236C100.71 41.3538 100.773 41.2978 100.848 41.2618L125.697 29.2912C125.76 29.2606 125.83 29.2454 125.9 29.2467C125.97 29.248 126.039 29.2658 126.101 29.2988L181.4 58.4882C181.473 58.5269 181.534 58.5851 181.576 58.6565C181.618 58.7278 181.64 58.8094 181.638 58.8922C181.637 58.975 181.612 59.0558 181.568 59.1255C181.523 59.1953 181.46 59.2512 181.385 59.2872L156.536 71.2577C156.475 71.287 156.409 71.3022 156.341 71.3022ZM102.036 41.683L156.351 70.3523L180.197 58.8653L125.882 30.1966L102.036 41.683Z" fill="black"/>
<path d="M45.8272 70.8544L101.126 41.6653L76.2769 29.6948L20.978 58.8842L45.8272 70.8544Z" fill="white"/>
<path d="M45.8272 71.3022C45.7598 71.3022 45.6933 71.287 45.6326 71.2577L20.7848 59.2872C20.7102 59.2512 20.647 59.1953 20.6023 59.1255C20.5576 59.0558 20.5331 58.975 20.5316 58.8922C20.53 58.8094 20.5515 58.7278 20.5937 58.6565C20.6358 58.5851 20.6969 58.5269 20.7701 58.4882L76.069 29.2988C76.1309 29.2658 76.1998 29.248 76.27 29.2467C76.3402 29.2454 76.4097 29.2606 76.4728 29.2912L101.322 41.2618C101.397 41.2978 101.46 41.3538 101.505 41.4236C101.549 41.4933 101.574 41.5741 101.575 41.657C101.577 41.7398 101.555 41.8214 101.513 41.8928C101.471 41.9641 101.41 42.0224 101.337 42.0612L46.0379 71.2506C45.9729 71.2847 45.9006 71.3024 45.8272 71.3022ZM21.9717 58.866L45.8178 70.353L100.132 41.6837L76.2861 30.1966L21.9717 58.866Z" fill="black"/>
<path d="M45.8271 70.8545L101.126 100.044L72.6931 115.596L17.3943 86.4065L45.8271 70.8545Z" fill="white"/>
<path d="M72.6932 116.043C72.6203 116.043 72.5484 116.025 72.4839 115.991L17.1851 86.8018C17.1137 86.7639 17.0539 86.7075 17.012 86.6384C16.9701 86.5694 16.9476 86.4903 16.947 86.4095C16.9464 86.3287 16.9677 86.2493 17.0086 86.1797C17.0495 86.11 17.1085 86.0527 17.1794 86.0138L45.6122 70.4618C45.6771 70.4262 45.7499 70.4072 45.8239 70.4067C45.898 70.4062 45.971 70.4242 46.0365 70.4589L101.335 99.6483C101.407 99.6862 101.467 99.7426 101.508 99.8117C101.55 99.8807 101.573 99.9598 101.573 100.041C101.574 100.121 101.553 100.201 101.512 100.27C101.471 100.34 101.412 100.397 101.341 100.436L72.9082 115.988C72.8423 116.024 72.7683 116.043 72.6932 116.043ZM18.3405 86.3992L72.6893 115.087L100.18 100.051L45.8311 71.3625L18.3405 86.3992Z" fill="black"/>
<path d="M156.341 70.8545L101.042 100.044L129.475 115.596L184.774 86.4065L156.341 70.8545Z" fill="white"/>
<path d="M129.476 116.043C129.401 116.043 129.327 116.024 129.261 115.988L100.828 100.436C100.757 100.397 100.698 100.34 100.658 100.27C100.617 100.201 100.595 100.121 100.596 100.041C100.597 99.9598 100.619 99.8807 100.661 99.8117C100.703 99.7426 100.763 99.6862 100.834 99.6483L156.133 70.4589C156.198 70.4242 156.271 70.4062 156.345 70.4067C156.419 70.4072 156.492 70.4262 156.557 70.4618L184.99 86.0138C185.061 86.0527 185.12 86.11 185.161 86.1797C185.202 86.2493 185.223 86.3287 185.222 86.4095C185.222 86.4903 185.199 86.5694 185.157 86.6384C185.115 86.7075 185.056 86.7639 184.984 86.8018L129.685 115.991C129.621 116.025 129.549 116.043 129.476 116.043ZM101.99 100.051L129.48 115.087L183.83 86.3992L156.339 71.3625L101.99 100.051Z" fill="black"/>
<path d="M101.126 41.6655L45.8271 70.8546L101.042 100.044L156.341 70.8546L101.126 41.6655Z" fill="black"/>
<path d="M101.49 100.043H100.594V153.58H101.49V100.043Z" fill="black"/>
<path d="M70.0598 68.2048C69.9856 68.2049 69.9133 68.1817 69.853 68.1385C69.7755 68.0836 69.7229 68.0002 69.7069 67.9066C69.6909 67.8129 69.7128 67.7168 69.7677 67.6393C69.834 67.5458 76.3107 58.188 69.0804 49.6568C67.8007 48.139 66.2043 46.9192 64.4032 46.083C62.6021 45.2468 60.6398 44.8144 58.6539 44.816H58.5564C59.243 47.1999 59.1204 49.3194 58.1482 50.9454C57.7339 51.6802 57.1226 52.2847 56.3831 52.691C55.6436 53.0972 54.8052 53.289 53.9625 53.2448C53.265 53.1877 52.5992 52.9285 52.0468 52.499C51.4943 52.0695 51.0792 51.4882 50.8523 50.8265C50.0571 48.7535 50.8881 46.7436 53.0785 45.4482C54.466 44.6834 56.0078 44.2402 57.5899 44.1513C57.0752 42.7876 56.406 41.4872 55.5952 40.2757C52.9846 36.2909 48.2266 33.5324 42.5408 32.7076C37.7223 32.0088 33.1044 32.8319 30.7747 34.8039C30.7022 34.8652 30.6082 34.8953 30.5134 34.8874C30.4187 34.8795 30.331 34.8343 30.2696 34.7618C30.2082 34.6893 30.1782 34.5953 30.1861 34.5007C30.194 34.406 30.2392 34.3183 30.3117 34.257C32.7909 32.1586 37.6313 31.2714 42.6437 32.0006C48.5326 32.8552 53.4716 35.7286 56.1951 39.885C57.0781 41.2031 57.7963 42.6243 58.3338 44.1169C60.4762 44.0655 62.6028 44.495 64.557 45.374C66.5112 46.2529 68.2432 47.5588 69.6255 49.1955C77.2202 58.1561 70.42 67.9573 70.3504 68.0554C70.3173 68.1016 70.2737 68.1392 70.2231 68.1652C70.1726 68.1911 70.1166 68.2047 70.0598 68.2048ZM57.8225 44.8422C56.2886 44.9075 54.7906 45.326 53.4451 46.0649C51.5543 47.183 50.8541 48.8255 51.5232 50.5705C51.7044 51.1051 52.0377 51.5754 52.4822 51.9237C52.9267 52.272 53.4632 52.4833 54.026 52.5317C54.7345 52.5634 55.438 52.3975 56.0576 52.0526C56.6773 51.7076 57.1887 51.1972 57.5347 50.5783C58.427 49.0848 58.5087 47.0996 57.8214 44.8422H57.8225Z" fill="black"/>
<path d="M24.5897 40.5782C23.9807 40.761 23.3243 40.699 22.7604 40.4055C22.1964 40.1119 21.7694 39.6099 21.5703 39.0064C21.3711 38.4028 21.4156 37.7455 21.6942 37.1742C21.9727 36.6029 22.4635 36.1629 23.0618 35.9479C23.6602 35.7328 24.3189 35.7596 24.8977 36.0227C25.4765 36.2858 25.9297 36.7643 26.1608 37.3563C26.3919 37.9484 26.3826 38.6072 26.135 39.1925C25.8873 39.7778 25.4208 40.2434 24.8348 40.4901C24.7547 40.5239 24.6729 40.5533 24.5897 40.5782ZM23.3981 36.5984C23.34 36.6158 23.283 36.6364 23.2272 36.66C22.8148 36.8337 22.4867 37.1615 22.3126 37.5735C22.1385 37.9855 22.1322 38.4491 22.2951 38.8657C22.4579 39.2822 22.7771 39.6187 23.1846 39.8036C23.5921 39.9884 24.0556 40.007 24.4766 39.8553C24.8975 39.7036 25.2426 39.3936 25.4383 38.9914C25.6339 38.5892 25.6648 38.1265 25.5242 37.702C25.3836 37.2774 25.0827 36.9244 24.6856 36.7183C24.2884 36.5122 23.8265 36.4691 23.3981 36.5984Z" fill="black"/>
<path d="M24.5855 34.9659C24.0094 35.1378 23.3901 35.0908 22.8466 34.834C22.3031 34.5771 21.8738 34.1286 21.6412 33.5745C21.4547 33.1303 21.4042 32.6408 21.4961 32.168C21.588 31.6951 21.8181 31.2601 22.1574 30.9179C22.4967 30.5758 22.9298 30.3418 23.4021 30.2457C23.8744 30.1496 24.3646 30.1957 24.8108 30.378C25.2569 30.5604 25.6389 30.8708 25.9084 31.2702C26.178 31.6695 26.323 32.1398 26.3251 32.6215C26.3272 33.1032 26.1864 33.5747 25.9204 33.9764C25.6544 34.3781 25.2751 34.6919 24.8306 34.8782C24.7505 34.9117 24.6687 34.941 24.5855 34.9659ZM23.3954 30.9858C23.3366 31.0034 23.2789 31.0241 23.2223 31.0477C22.8019 31.2242 22.4688 31.5603 22.2962 31.9821C22.1237 32.404 22.1258 32.877 22.302 33.2973C22.4306 33.6037 22.6452 33.8663 22.9199 34.0533C23.1947 34.2403 23.5178 34.3438 23.8501 34.3512C24.1824 34.3585 24.5098 34.2695 24.7926 34.0949C25.0754 33.9202 25.3014 33.6675 25.4435 33.3671C25.5855 33.0667 25.6375 32.7317 25.593 32.4024C25.5485 32.0732 25.4095 31.7639 25.1929 31.5119C24.9762 31.26 24.6911 31.0762 24.3721 30.9827C24.0531 30.8893 23.7139 30.8906 23.3954 30.9858Z" fill="black"/>
<path d="M23.8899 37.4988C25.6498 37.4988 27.0765 36.5464 27.0765 35.3717C27.0765 34.197 25.6498 33.2446 23.8899 33.2446C22.13 33.2446 20.7034 34.197 20.7034 35.3717C20.7034 36.5464 22.13 37.4988 23.8899 37.4988Z" fill="white"/>
<path d="M25.3003 37.6554C24.8434 37.7903 24.3694 37.8584 23.893 37.8574C21.9048 37.8574 20.3452 36.7686 20.3452 35.375C20.3452 33.9814 21.9001 32.8887 23.8876 32.8866C24.7541 32.87 25.6066 33.1065 26.3406 33.5671C26.6703 33.7387 26.9465 33.9973 27.1395 34.3148C27.3324 34.6324 27.4345 34.9966 27.4349 35.3681C27.4352 35.7396 27.3337 36.1041 27.1413 36.4219C26.949 36.7398 26.6732 36.9989 26.3438 37.1711C26.0219 37.3833 25.6702 37.5465 25.3003 37.6554ZM22.6979 33.7733C21.7403 34.0599 21.0616 34.6784 21.0619 35.3732C21.0619 36.332 22.3581 37.1411 23.893 37.1396C24.618 37.1549 25.3318 36.9587 25.9471 36.5752C26.1779 36.4689 26.3733 36.2988 26.5103 36.0849C26.6472 35.871 26.7198 35.6223 26.7196 35.3684C26.7194 35.1145 26.6463 34.8659 26.509 34.6523C26.3717 34.4386 26.1759 34.2688 25.945 34.163C25.3292 33.7803 24.6151 33.5853 23.8901 33.6021C23.4865 33.6011 23.0849 33.6588 22.6979 33.7733Z" fill="black"/>
<path d="M24.6714 37.4341L24.5961 33.2974L23.5669 33.2559L23.4949 37.4824L24.6714 37.4341Z" fill="black"/>
<path d="M19.6622 36.2718C19.8439 36.2718 19.9912 36.1246 19.9912 35.943C19.9912 35.7615 19.8439 35.6143 19.6622 35.6143C19.4805 35.6143 19.3333 35.7615 19.3333 35.943C19.3333 36.1246 19.4805 36.2718 19.6622 36.2718Z" fill="black"/>
<path d="M19.9191 34.5125C20.1008 34.5125 20.248 34.3653 20.248 34.1838C20.248 34.0022 20.1008 33.855 19.9191 33.855C19.7374 33.855 19.5901 34.0022 19.5901 34.1838C19.5901 34.3653 19.7374 34.5125 19.9191 34.5125Z" fill="black"/>
<path d="M126.367 47.5501C126.291 47.5501 126.216 47.5255 126.154 47.4799C126.093 47.4343 126.047 47.3702 126.025 47.2969C124.836 42.8607 124.519 38.2363 125.091 33.6796C126.017 27.0179 129.693 18.2751 141.945 14.4468C143.669 13.8929 145.437 13.4877 147.23 13.2359C147.807 9.6325 150.003 5.72362 154.915 3.02674C166.584 -3.38132 174.466 2.3681 174.544 2.42683C174.62 2.48382 174.67 2.56867 174.684 2.6627C174.697 2.75674 174.673 2.85226 174.616 2.92825C174.558 3.00424 174.474 3.05447 174.38 3.06791C174.285 3.08134 174.19 3.05687 174.114 2.99988C174.039 2.944 166.507 -2.52176 155.26 3.65494C150.671 6.17526 148.57 9.79259 147.973 13.1506C153.376 12.6188 155.964 14.4203 157.126 15.7809C157.844 16.5991 158.306 17.6106 158.453 18.6892C158.601 19.7679 158.428 20.8661 157.955 21.8469C157.581 22.6397 156.976 23.3007 156.219 23.7425C155.462 24.1843 154.588 24.3861 153.714 24.3214C150.696 24.1445 148.199 21.6073 147.352 17.8575C147.073 16.5881 146.999 15.2822 147.132 13.9894C145.445 14.2316 143.782 14.6139 142.159 15.1323C132.61 18.1161 127.108 24.3905 125.801 33.7802C125.24 38.2336 125.549 42.7532 126.71 47.0891C126.726 47.1427 126.73 47.1994 126.721 47.2546C126.711 47.3098 126.689 47.362 126.656 47.407C126.622 47.452 126.579 47.4886 126.529 47.5139C126.479 47.5391 126.423 47.5522 126.367 47.5522V47.5501ZM147.863 13.8999C147.713 15.1681 147.777 16.4523 148.051 17.6995C148.826 21.1299 151.065 23.4482 153.756 23.6062C154.489 23.6587 155.221 23.4884 155.856 23.1177C156.491 22.747 156.999 22.1932 157.313 21.5289C157.723 20.6735 157.872 19.7166 157.742 18.7774C157.611 17.8381 157.207 16.9579 156.58 16.2465C154.904 14.2813 151.846 13.4877 147.863 13.8999Z" fill="black"/>
<path d="M182.891 6.04651C182.409 6.0455 181.936 5.9081 181.528 5.65018C181.12 5.39225 180.794 5.02431 180.586 4.58883C180.379 4.15334 180.298 3.66806 180.355 3.18899C180.412 2.70992 180.602 2.25659 180.906 1.88132C181.209 1.50606 181.612 1.22415 182.069 1.06814C182.526 0.912122 183.017 0.888365 183.487 0.999604C183.957 1.11084 184.385 1.35255 184.723 1.69681C185.062 2.04108 185.295 2.47388 185.398 2.94527C185.478 3.31893 185.474 3.70583 185.385 4.07761C185.297 4.4494 185.126 4.79666 184.886 5.09398C184.645 5.39131 184.342 5.63115 183.996 5.79596C183.651 5.96078 183.274 6.04638 182.891 6.04651ZM182.897 1.64696C182.516 1.64695 182.144 1.7651 181.833 1.98511C181.522 2.20512 181.286 2.51617 181.159 2.87539C181.033 3.23461 181.02 3.62431 181.124 3.99078C181.228 4.35726 181.444 4.68246 181.74 4.92157C182.037 5.16068 182.401 5.30193 182.781 5.32585C183.162 5.34977 183.54 5.25518 183.864 5.05512C184.189 4.85506 184.443 4.55938 184.592 4.20883C184.741 3.85828 184.778 3.47011 184.697 3.09784C184.61 2.68595 184.383 2.31676 184.055 2.05248C183.727 1.78819 183.318 1.64498 182.897 1.64696Z" fill="black"/>
<path d="M181.812 11.8919C181.156 11.8919 180.524 11.6401 180.047 11.1886C179.57 10.737 179.285 10.12 179.25 9.46452C179.215 8.80904 179.432 8.16499 179.858 7.66495C180.283 7.16492 180.884 6.84696 181.537 6.77653C182.19 6.7061 182.846 6.88857 183.368 7.28635C183.89 7.68414 184.24 8.26699 184.346 8.9149C184.451 9.56281 184.304 10.2265 183.935 10.7693C183.566 11.3121 183.002 11.6927 182.36 11.8328C182.18 11.8721 181.997 11.8919 181.812 11.8919ZM181.821 7.492C181.689 7.49206 181.557 7.50634 181.427 7.53462C180.969 7.6351 180.568 7.9071 180.304 8.29466C180.041 8.68222 179.937 9.15587 180.012 9.61814C180.088 10.0804 180.338 10.4961 180.711 10.7798C181.084 11.0635 181.551 11.1935 182.017 11.1431C182.483 11.0927 182.912 10.8658 183.216 10.509C183.519 10.1522 183.675 9.69261 183.65 9.22488C183.624 8.75715 183.421 8.31681 183.081 7.99448C182.741 7.67214 182.29 7.49231 181.821 7.492Z" fill="black"/>
<path d="M185.661 7.09288C185.887 5.86955 184.584 4.60386 182.752 4.26588C180.919 3.92791 179.25 4.64563 179.024 5.86896C178.799 7.09228 180.101 8.35797 181.934 8.69594C183.766 9.03392 185.435 8.3162 185.661 7.09288Z" fill="white"/>
<path d="M182.836 9.13799C182.512 9.13747 182.188 9.1075 181.869 9.04845C180.967 8.89901 180.129 8.49 179.457 7.87156C179.163 7.62072 178.937 7.2998 178.8 6.93847C178.662 6.57714 178.619 6.18707 178.672 5.80431C178.759 5.42768 178.939 5.07897 179.196 4.7904C179.454 4.50183 179.779 4.28269 180.144 4.15322C180.996 3.83145 181.921 3.74873 182.817 3.91399C183.713 4.07925 184.547 4.48622 185.228 5.09087C185.522 5.34171 185.748 5.66263 185.886 6.02396C186.023 6.38529 186.067 6.77536 186.013 7.15812C185.926 7.53475 185.746 7.88345 185.489 8.17203C185.232 8.4606 184.906 8.67974 184.541 8.8092C184.001 9.0327 183.421 9.14454 182.836 9.13799ZM181.846 4.54003C181.36 4.53384 180.877 4.62607 180.427 4.81115C180.172 4.89634 179.943 5.04366 179.76 5.23977C179.576 5.43589 179.445 5.67461 179.377 5.93432C179.348 6.20109 179.385 6.47098 179.486 6.71956C179.588 6.96815 179.749 7.18757 179.957 7.35797C180.536 7.86361 181.242 8.20406 181.998 8.34364C182.755 8.48322 183.535 8.41678 184.257 8.15128C184.512 8.06609 184.741 7.91877 184.925 7.72266C185.108 7.52654 185.239 7.28782 185.307 7.02811C185.337 6.76133 185.299 6.49137 185.198 6.24275C185.097 5.99414 184.935 5.77473 184.727 5.60446C184.157 5.08434 183.447 4.7417 182.685 4.61846C182.409 4.56709 182.129 4.54084 181.848 4.54003H181.846Z" fill="black"/>
<path d="M181.929 4.18335L181.208 8.50482L182.272 8.74693L183.163 4.35992L181.929 4.18335Z" fill="black"/>
<path d="M186.249 8.83248C186.441 8.83248 186.597 8.67662 186.597 8.48435C186.597 8.29209 186.441 8.13623 186.249 8.13623C186.057 8.13623 185.901 8.29209 185.901 8.48435C185.901 8.67662 186.057 8.83248 186.249 8.83248Z" fill="black"/>
<path d="M186.856 7.05025C187.048 7.05025 187.204 6.89439 187.204 6.70213C187.204 6.50986 187.048 6.354 186.856 6.354C186.664 6.354 186.508 6.50986 186.508 6.70213C186.508 6.89439 186.664 7.05025 186.856 7.05025Z" fill="black"/>
</g>
<defs>
<clipPath id="clip0_2268_543">
<rect width="200" height="170" fill="white"/>
</clipPath>
</defs>
</svg>
