<svg width="328" height="255" viewBox="0 0 328 255" fill="none" xmlns="http://www.w3.org/2000/svg">
<g clip-path="url(#clip0_898_1711)">
<path d="M42.6049 92.3451L35.8877 93.9355L44.3091 129.607L51.0263 128.016L42.6049 92.3451Z" fill="#E7ECFF"/>
<path d="M49.9934 89.5772L44.2261 120.886L47.9554 121.575L53.7227 90.2661L49.9934 89.5772Z" fill="#DADADA" fill-opacity="0.8"/>
<path d="M49.9951 89.5668L49.3389 93.0203L53.0643 93.7303L53.7205 90.2768L49.9951 89.5668Z" fill="#DEE8F5"/>
<path d="M38.4509 97.5338L36.3799 98.3508L48.4643 129.07L50.5352 128.253L38.4509 97.5338Z" fill="#26AD50"/>
<path d="M54.0187 110.976H35.8027V134.291H54.0187V110.976Z" fill="#DADADA" fill-opacity="0.8"/>
<path d="M328 242.25H0C3.59415 229.378 10.2298 218.457 19.5876 215.218C33.2742 210.485 47.7586 223.499 61.4152 218.605C69.1737 215.829 75.2816 207.735 81.7003 201.016C105.915 175.66 139.097 168.165 167.751 181.586C182.728 188.598 196.375 200.861 211.718 206.073C231.556 212.817 252.304 207.224 272.706 206.303C292.577 205.406 321.047 216.777 328 242.25Z" fill="#F7E7FF"/>
<path d="M229.447 135.653C229.447 135.653 224.306 132.923 225.454 118.904L214.832 116.931C214.832 116.931 216.029 129.501 210.652 133.491L229.447 135.653Z" fill="#F29B7A"/>
<g opacity="0.15">
<path d="M212.829 130.866L221.651 124.106L214.721 124.034C214.52 126.409 213.879 128.727 212.829 130.866Z" fill="black"/>
</g>
<path d="M231.481 113.47C230.746 117.723 228.427 121.751 224.681 123.124C220.597 124.748 216.179 125.346 211.812 124.867C200.184 123.912 202.484 97.4353 208.004 92.2906C213.524 87.1459 229.726 90.4044 231.697 99.0066C232.717 103.456 232.18 109.42 231.481 113.47Z" fill="#F29B7A"/>
<path d="M204.166 93.2047C204.513 92.6532 204.999 92.2032 205.575 91.9004C210.739 89.088 220.308 88.1153 224.904 89.4922C230.236 91.0901 236.923 95.5663 235.209 106.42C235.137 106.878 235.059 107.318 234.979 107.752C236.663 107.464 238.393 107.645 239.981 108.276C241.569 108.908 242.953 109.965 243.981 111.331C245.009 112.697 245.641 114.321 245.809 116.023C245.977 117.726 245.674 119.442 244.933 120.984C244.192 122.525 243.041 123.833 241.608 124.763C240.174 125.693 238.512 126.21 236.804 126.258C235.097 126.305 233.409 125.881 231.926 125.031C230.443 124.182 229.222 122.94 228.397 121.442C227.606 122.127 226.751 122.734 225.845 123.255C225.209 123.633 225.054 123.322 224.834 122.618C224.063 120.147 223.305 110.375 223.91 103.28L211.38 102.846L209.197 96.6256L207.408 102.846H203.141C202.57 99.4739 201.981 95.6529 204.166 93.2047Z" fill="black"/>
<path d="M214.847 110.193C215.379 110.193 215.81 109.761 215.81 109.228C215.81 108.696 215.379 108.264 214.847 108.264C214.315 108.264 213.884 108.696 213.884 109.228C213.884 109.761 214.315 110.193 214.847 110.193Z" fill="black"/>
<path d="M207.247 109.569C207.779 109.569 208.211 109.137 208.211 108.604C208.211 108.071 207.779 107.639 207.247 107.639C206.715 107.639 206.284 108.071 206.284 108.604C206.284 109.137 206.715 109.569 207.247 109.569Z" fill="black"/>
<path d="M205.578 106.549C205.458 106.549 205.343 106.502 205.257 106.418C205.172 106.334 205.123 106.218 205.122 106.098C205.122 105.978 205.168 105.862 205.253 105.777C205.337 105.691 205.452 105.643 205.572 105.642L208.124 105.61C208.243 105.612 208.357 105.659 208.442 105.742C208.527 105.825 208.578 105.938 208.582 106.057C208.583 106.116 208.572 106.175 208.55 106.231C208.528 106.286 208.496 106.336 208.454 106.379C208.413 106.422 208.363 106.456 208.309 106.479C208.254 106.503 208.195 106.515 208.136 106.516L205.584 106.549H205.578Z" fill="black"/>
<path d="M216.926 107.48C216.891 107.48 216.855 107.476 216.82 107.468L214.304 106.861C214.246 106.848 214.19 106.823 214.142 106.788C214.093 106.753 214.051 106.709 214.02 106.658C213.988 106.607 213.967 106.55 213.957 106.491C213.948 106.431 213.95 106.371 213.964 106.313C213.978 106.254 214.004 106.199 214.039 106.151C214.075 106.102 214.119 106.061 214.171 106.03C214.222 105.999 214.279 105.979 214.338 105.97C214.398 105.961 214.458 105.965 214.516 105.979L217.032 106.586C217.14 106.612 217.234 106.677 217.297 106.768C217.361 106.859 217.388 106.97 217.375 107.08C217.362 107.19 217.309 107.292 217.227 107.365C217.144 107.439 217.037 107.48 216.926 107.48Z" fill="black"/>
<path d="M219.856 111.589C219.784 112.661 220.136 113.719 220.836 114.533C221.536 115.348 222.529 115.853 223.598 115.941C224.668 116.028 225.729 115.69 226.552 115.001C227.375 114.311 227.894 113.325 227.996 112.255C228.049 111.718 227.994 111.175 227.834 110.66C227.673 110.145 227.411 109.667 227.062 109.256C226.713 108.844 226.286 108.507 225.804 108.265C225.323 108.022 224.798 107.879 224.26 107.844C221.352 107.755 220.043 109.338 219.856 111.589Z" fill="#F29B7A"/>
<g opacity="0.15">
<path d="M210.571 114.579C210.538 114.579 210.505 114.574 210.473 114.565L208.155 113.851C208.11 113.837 208.068 113.814 208.033 113.783C207.998 113.751 207.969 113.713 207.95 113.67C207.931 113.627 207.921 113.581 207.92 113.534C207.92 113.486 207.93 113.44 207.949 113.397L209.474 109.996C209.51 109.916 209.577 109.853 209.659 109.822C209.742 109.791 209.833 109.793 209.914 109.83C209.994 109.866 210.057 109.933 210.088 110.015C210.119 110.098 210.116 110.19 210.08 110.27L208.71 113.326L210.669 113.929C210.745 113.953 210.81 114.003 210.852 114.07C210.894 114.137 210.91 114.217 210.898 114.296C210.887 114.374 210.847 114.446 210.787 114.498C210.727 114.55 210.651 114.579 210.572 114.579H210.571Z" fill="black"/>
</g>
<path d="M214.405 116.826C214.405 116.826 210.848 117.202 208.354 116.33C208.354 116.33 208.374 118.675 211.188 118.906C214.002 119.137 214.405 116.826 214.405 116.826Z" fill="white"/>
<path d="M188.52 238.605C187.256 238.393 173.004 235.956 173.004 235.956L175.355 222.174C175.355 222.174 189.564 224.604 190.824 224.816L188.52 238.605Z" fill="#F29B7A"/>
<path d="M164.874 251.825C164.814 252.197 164.831 252.576 164.923 252.941C165.016 253.305 165.183 253.646 165.413 253.943C165.644 254.24 165.933 254.486 166.262 254.666C166.592 254.846 166.955 254.956 167.329 254.989C167.848 255.035 168.368 254.932 168.83 254.691C169.292 254.451 169.675 254.083 169.936 253.632L177.988 238.481C178.143 238.188 178.232 237.864 178.251 237.532C178.269 237.201 178.215 236.869 178.094 236.56C176.934 234.097 176.593 231.326 177.123 228.655C177.621 226.589 178.689 224.705 180.205 223.218C180.351 223.089 180.459 222.921 180.514 222.734C180.569 222.547 180.57 222.348 180.517 222.16C180.463 221.972 180.358 221.803 180.212 221.673C180.067 221.543 179.887 221.458 179.695 221.426L171.855 220.112C171.624 220.073 171.387 220.08 171.159 220.133C170.93 220.186 170.715 220.284 170.524 220.421C170.333 220.557 170.172 220.73 170.048 220.93C169.924 221.129 169.841 221.351 169.803 221.583L164.874 251.825Z" fill="#DADADA" fill-opacity="0.8"/>
<path d="M232.634 201.328C238.548 201.575 244.571 201.748 250.595 201.897L259.647 202.097L268.688 202.26L269.589 202.276C273.324 202.346 276.893 203.832 279.577 206.434C282.26 209.035 283.859 212.559 284.051 216.295C284.243 220.03 283.014 223.7 280.611 226.564C278.208 229.427 274.81 231.272 271.102 231.726L181.748 242.592L178.11 216.149L267.066 202.397L269.48 231.862L260.3 232.457L251.125 233.012C244.998 233.367 238.87 233.699 232.632 233.955L232.634 201.328Z" fill="black"/>
<path d="M255.174 232.814C242.837 231.016 241.608 230.683 241.203 230.577L244.833 217.076C244.792 217.065 244.739 217.05 244.674 217.036C245.685 217.257 251.954 218.216 257.183 218.978L255.174 232.814Z" fill="#F29B7A"/>
<path d="M270.583 244.832C270.713 245.185 270.768 245.561 270.746 245.936C270.724 246.312 270.625 246.678 270.455 247.014C270.285 247.349 270.048 247.646 269.758 247.885C269.469 248.124 269.133 248.301 268.772 248.405C268.272 248.549 267.741 248.546 267.242 248.398C266.743 248.249 266.297 247.961 265.956 247.567L255.179 234.223C254.972 233.964 254.824 233.664 254.743 233.342C254.663 233.02 254.653 232.685 254.714 232.359C255.386 229.72 255.195 226.935 254.169 224.413C253.288 222.48 251.883 220.833 250.113 219.661C249.944 219.563 249.807 219.419 249.717 219.245C249.627 219.072 249.588 218.876 249.605 218.681C249.622 218.487 249.694 218.301 249.812 218.146C249.931 217.99 250.091 217.872 250.274 217.805L257.72 215.024C257.94 214.942 258.173 214.904 258.407 214.913C258.641 214.922 258.871 214.976 259.084 215.074C259.297 215.172 259.489 215.311 259.648 215.483C259.807 215.655 259.931 215.857 260.012 216.077L270.583 244.832Z" fill="#DADADA" fill-opacity="0.8"/>
<path d="M212.794 231.556C209.05 231.237 205.307 231.006 201.564 230.79C197.823 230.59 194.08 230.39 190.34 230.257L184.729 230.041L179.118 229.879C175.378 229.754 171.639 229.703 167.9 229.631L169.195 202.726C176.196 203.706 183.205 204.607 190.212 205.53C197.22 206.453 204.234 207.303 211.249 208.166L221.775 209.409L232.309 210.591C239.335 211.348 246.363 212.099 253.405 212.718L250.314 239.237C243.319 238.216 236.308 237.326 229.297 236.441L218.774 235.162L208.244 233.944C201.22 233.167 194.198 232.378 187.169 231.659C180.139 230.939 173.109 230.201 166.072 229.541C162.697 229.223 159.567 227.641 157.307 225.111C155.047 222.581 153.824 219.29 153.882 215.896C153.941 212.502 155.277 209.256 157.624 206.806C159.97 204.356 163.154 202.884 166.537 202.683L167.37 202.636C171.104 202.416 174.838 202.217 178.57 201.944L184.17 201.561L189.768 201.123C193.501 200.841 197.232 200.492 200.963 200.145C204.694 199.781 208.424 199.403 212.153 198.936L212.794 231.556Z" fill="black"/>
<path d="M246.22 197.244L248.187 230.338L191.35 229.669L195.641 200.37L246.22 197.244Z" fill="black"/>
<path d="M191.606 202.599C194.391 209.011 249.128 211.674 249.859 200.395C250.324 193.218 244.008 186.952 244.008 172.964C244.008 158.975 256.86 147.104 246.389 136.617C243.35 133.575 238.105 131.61 231.709 131.604C231.23 135.339 208.586 135.352 208.413 131.69C207.549 131.704 206.877 131.717 206.458 131.737C184.399 132.689 194.092 151.838 194.305 170.307C194.564 191.919 188.734 195.994 191.606 202.599Z" fill="url(#paint0_linear_898_1711)"/>
<path d="M191.606 202.599C194.391 209.011 249.128 211.674 249.859 200.395C250.324 193.218 244.008 186.952 244.008 172.964C244.008 158.975 256.86 147.104 246.389 136.617C243.35 133.575 238.105 131.61 231.709 131.604C231.23 135.339 208.586 135.352 208.413 131.69C207.549 131.704 206.877 131.717 206.458 131.737C184.399 132.689 194.092 151.838 194.305 170.307C194.564 191.919 188.734 195.994 191.606 202.599Z" fill="white" fill-opacity="0.55"/>
<path d="M208.413 131.69C208.586 135.352 210.574 140.739 216.71 141.145C224.888 141.684 231.23 135.339 231.709 131.604H231.689C223.638 131.604 213.107 131.617 208.413 131.69Z" fill="#F29B7A"/>
<path d="M263.99 195.238C262.277 195.239 260.619 194.632 259.311 193.525L236.071 173.863L244.426 163.958L236.195 146.797L249.261 140.51L270.522 184.836C271.054 185.943 271.296 187.166 271.226 188.392C271.157 189.618 270.778 190.806 270.126 191.845C269.473 192.884 268.568 193.74 267.495 194.334C266.421 194.927 265.216 195.239 263.99 195.238Z" fill="url(#paint1_linear_898_1711)"/>
<path d="M263.99 195.238C262.277 195.239 260.619 194.632 259.311 193.525L236.071 173.863L244.426 163.958L236.195 146.797L249.261 140.51L270.522 184.836C271.054 185.943 271.296 187.166 271.226 188.392C271.157 189.618 270.778 190.806 270.126 191.845C269.473 192.884 268.568 193.74 267.495 194.334C266.421 194.927 265.216 195.239 263.99 195.238Z" fill="white" fill-opacity="0.55"/>
<path d="M169.633 199.799C168.406 199.798 167.201 199.472 166.139 198.856C165.078 198.239 164.197 197.353 163.586 196.287C162.975 195.221 162.656 194.013 162.66 192.784C162.665 191.555 162.992 190.348 163.611 189.287L194.467 136.272L206.529 143.313L191.202 169.641L192.484 170.477L175.487 196.622C174.853 197.598 173.986 198.4 172.963 198.955C171.941 199.51 170.796 199.8 169.633 199.799Z" fill="url(#paint2_linear_898_1711)"/>
<path d="M169.633 199.799C168.406 199.798 167.201 199.472 166.139 198.856C165.078 198.239 164.197 197.353 163.586 196.287C162.975 195.221 162.656 194.013 162.66 192.784C162.665 191.555 162.992 190.348 163.611 189.287L194.467 136.272L206.529 143.313L191.202 169.641L192.484 170.477L175.487 196.622C174.853 197.598 173.986 198.4 172.963 198.955C171.941 199.51 170.796 199.8 169.633 199.799Z" fill="white" fill-opacity="0.55"/>
<path d="M213.673 181.824C224.889 170.592 237.425 177.783 237.425 177.783V143.436C221.409 139.395 213.673 147.813 213.673 147.813C213.673 147.813 204.357 139.17 189.45 145.456V180.103C189.45 180.103 196.351 175.912 203.236 177.706C210.121 179.499 213.673 181.824 213.673 181.824Z" fill="#F7E7FF"/>
<path d="M243.954 165.603L239.201 172.061C239.201 172.061 227.812 170.643 226.613 160.786C226.475 159.654 226.961 155.962 229.387 156.933C232.838 158.316 235.145 160.381 238.009 163.251C237.282 161.945 236.393 160.101 236.966 159.764C238.472 158.877 242.527 164.228 243.954 165.603Z" fill="#F29B7A"/>
<path d="M193.001 170.679L185.382 164.593C186.757 162.256 188.666 159.134 189.876 159.56C190.501 159.786 189.982 161.763 189.517 163.188C191.777 159.819 193.818 156.816 197.01 155.245C199.35 154.087 200.38 157.356 200.467 158.494C200.932 165.019 196.244 168.841 193.001 170.679Z" fill="#F29B7A"/>
<path d="M194.955 172.244L175.096 197.171L164.18 188.449L184.039 163.521L185.382 164.593L193.001 170.679L194.955 172.244Z" fill="url(#paint3_linear_898_1711)"/>
<path d="M194.955 172.244L175.096 197.171L164.18 188.449L184.039 163.521L185.382 164.593L193.001 170.679L194.955 172.244Z" fill="white" fill-opacity="0.55"/>
<path d="M245.426 162.772L236.071 173.862L259.311 193.523L268.666 182.433L245.426 162.772Z" fill="url(#paint4_linear_898_1711)"/>
<path d="M245.426 162.772L236.071 173.862L259.311 193.523L268.666 182.433L245.426 162.772Z" fill="white" fill-opacity="0.55"/>
<path d="M131.35 241.991H138.093V175.564H131.35V241.991Z" fill="#DADADA" fill-opacity="0.8"/>
<path d="M136.9 241.991H143.642V175.564H136.9V241.991Z" fill="#DEE8F5"/>
<path d="M47.3673 241.991H54.1101L54.1101 175.564H47.3673L47.3673 241.991Z" fill="#DADADA" fill-opacity="0.8"/>
<path d="M52.9159 241.991H59.6587L59.6587 175.564H52.9159L52.9159 241.991Z" fill="#DEE8F5"/>
<path d="M112.857 241.991H119.6L119.6 175.564H112.857L112.857 241.991Z" fill="#DADADA" fill-opacity="0.8"/>
<path d="M118.407 241.991H125.149L125.149 175.564H118.407L118.407 241.991Z" fill="#DEE8F5"/>
<path d="M28.8734 241.991H35.6162L35.6162 175.564H28.8734L28.8734 241.991Z" fill="#DADADA" fill-opacity="0.8"/>
<path d="M34.4227 241.991H41.1655L41.1655 175.564H34.4227L34.4227 241.991Z" fill="#DEE8F5"/>
<path d="M119.558 133.043H28.874V177.156H119.558V133.043Z" fill="#DADADA" fill-opacity="0.8"/>
<path d="M143.642 133.043H52.9575V177.156H143.642V133.043Z" fill="#DEE8F5"/>
<g opacity="0.53">
<path d="M138.764 139.315H57.8372V170.69H138.764V139.315Z" fill="#F7E7FF"/>
</g>
<path d="M98.3004 158.602C100.285 158.602 101.895 156.99 101.895 155.002C101.895 153.015 100.285 151.403 98.3004 151.403C96.3154 151.403 94.7063 153.015 94.7063 155.002C94.7063 156.99 96.3154 158.602 98.3004 158.602Z" fill="white"/>
<path d="M140.674 224.405V221.533H124.694V241.987H140.674V238.521C142.543 238.521 144.335 237.777 145.657 236.454C146.979 235.13 147.721 233.335 147.721 231.463C147.721 229.591 146.979 227.796 145.657 226.473C144.335 225.149 142.543 224.406 140.674 224.406V224.405ZM140.674 235.606V227.322C141.222 227.315 141.765 227.417 142.273 227.623C142.781 227.828 143.244 228.132 143.633 228.517C144.023 228.903 144.332 229.362 144.544 229.868C144.755 230.374 144.864 230.917 144.864 231.465C144.864 232.014 144.755 232.557 144.544 233.063C144.332 233.569 144.023 234.028 143.633 234.414C143.244 234.799 142.781 235.103 142.273 235.308C141.765 235.513 141.222 235.615 140.674 235.608V235.606Z" fill="#26AD50"/>
<path d="M271.409 42.8538L306.027 42.8538V0.743427L271.409 0.743427V42.8538Z" fill="#DADADA" fill-opacity="0.8"/>
<path d="M272.764 42.8538L307.382 42.8538V0.743427L272.764 0.743427V42.8538Z" fill="#DEE8F5"/>
<path d="M275.664 39.9507H304.484V3.64686H275.664V39.9507Z" fill="white"/>
<path d="M283.568 27.541L298.981 27.541V9.48364L283.568 9.48364V27.541Z" fill="#DADADA" fill-opacity="0.8"/>
<path d="M284.389 34.1145H284.39C287.467 34.1145 289.962 31.6162 289.962 28.5344V28.5337C289.962 25.4519 287.467 22.9536 284.39 22.9536H284.389C281.312 22.9536 278.817 25.4519 278.817 28.5337V28.5344C278.817 31.6162 281.312 34.1145 284.389 34.1145Z" fill="#DEE8F5"/>
<path d="M278.818 19.8237H291.274V17.3609H278.818V19.8237Z" fill="#F7E7FF"/>
<path d="M72.1856 133.45H114.999V123.741H72.1856V133.45Z" fill="#DADADA" fill-opacity="0.8"/>
<path d="M71.4495 114.055H114.262V104.347H71.4495V114.055Z" fill="#DADADA" fill-opacity="0.8"/>
<path d="M86.7949 133.45H132.07V123.741H86.7949V133.45Z" fill="#DEE8F5"/>
<g opacity="0.62">
<path d="M90.4914 133.45H92.6887V123.741H90.4914V133.45Z" fill="#DADADA" fill-opacity="0.8"/>
</g>
<g opacity="0.62">
<path d="M94.886 133.45H97.0833V123.741H94.886V133.45Z" fill="#DADADA" fill-opacity="0.8"/>
</g>
<path d="M126.879 131.727C128.606 131.727 130.005 130.325 130.005 128.596C130.005 126.867 128.606 125.465 126.879 125.465C125.153 125.465 123.753 126.867 123.753 128.596C123.753 130.325 125.153 131.727 126.879 131.727Z" fill="#F7E7FF"/>
<path d="M86.0596 114.055H131.334V104.347H86.0596V114.055Z" fill="#DEE8F5"/>
<path d="M96.8246 111.869H128.418V106.534H96.8246V111.869Z" fill="#F7E7FF"/>
<g opacity="0.62">
<path d="M89.7557 114.055H93.9143V104.347H89.7557V114.055Z" fill="#DADADA" fill-opacity="0.8"/>
</g>
<path d="M111.507 114.044H68.6938V123.753H111.507V114.044Z" fill="#DADADA" fill-opacity="0.8"/>
<path d="M128.578 114.044H83.303V123.753H128.578V114.044Z" fill="#F7E7FF"/>
<path d="M124.882 114.044H122.685V123.753H124.882V114.044Z" fill="#DEE8F5"/>
<path d="M120.487 114.044H118.29V123.753H120.487V114.044Z" fill="#DEE8F5"/>
<path d="M88.494 122.029C90.2205 122.029 91.6201 120.627 91.6201 118.898C91.6201 117.169 90.2205 115.768 88.494 115.768C86.7675 115.768 85.3679 117.169 85.3679 118.898C85.3679 120.627 86.7675 122.029 88.494 122.029Z" fill="#DEE8F5"/>
<path d="M94.9171 121.278H114.903V116.519H94.9171V121.278Z" fill="#DEE8F5"/>
<path d="M69.3228 104.444H112.136V94.7353H69.3228V104.444Z" fill="#DADADA" fill-opacity="0.8"/>
<path d="M68.5867 85.0496H111.4V75.3408H68.5867V85.0496Z" fill="#DADADA" fill-opacity="0.8"/>
<path d="M83.9326 104.444H129.208V94.735H83.9326V104.444Z" fill="#DEE8F5"/>
<g opacity="0.62">
<path d="M87.6284 104.444H89.8257V94.735H87.6284V104.444Z" fill="#DADADA" fill-opacity="0.8"/>
</g>
<g opacity="0.62">
<path d="M92.0237 104.444H94.2209V94.735H92.0237V104.444Z" fill="#DADADA" fill-opacity="0.8"/>
</g>
<path d="M124.016 102.721C125.743 102.721 127.143 101.319 127.143 99.5904C127.143 97.8614 125.743 96.4597 124.016 96.4597C122.29 96.4597 120.89 97.8614 120.89 99.5904C120.89 101.319 122.29 102.721 124.016 102.721Z" fill="#F7E7FF"/>
<path d="M83.1968 85.0496H128.472V75.3408H83.1968V85.0496Z" fill="#DEE8F5"/>
<path d="M93.9626 82.863H125.556V77.5279H93.9626V82.863Z" fill="#F7E7FF"/>
<g opacity="0.62">
<path d="M86.8927 85.0496H91.0513V75.3408H86.8927V85.0496Z" fill="#DADADA" fill-opacity="0.8"/>
</g>
<path d="M108.644 85.0383H65.8311V94.7471H108.644V85.0383Z" fill="#DADADA" fill-opacity="0.8"/>
<path d="M125.715 85.0383H80.4402V94.7471H125.715V85.0383Z" fill="#F7E7FF"/>
<path d="M122.019 85.0383H119.822V94.7471H122.019V85.0383Z" fill="#DEE8F5"/>
<path d="M117.624 85.0383H115.427V94.7471H117.624V85.0383Z" fill="#DEE8F5"/>
<path d="M85.6314 93.0235C87.3579 93.0235 88.7575 91.6218 88.7575 89.8928C88.7575 88.1638 87.3579 86.7622 85.6314 86.7622C83.9049 86.7622 82.5054 88.1638 82.5054 89.8928C82.5054 91.6218 83.9049 93.0235 85.6314 93.0235Z" fill="#DEE8F5"/>
<path d="M92.0543 92.2725H112.04V87.5133H92.0543V92.2725Z" fill="#DEE8F5"/>
</g>
<defs>
<linearGradient id="paint0_linear_898_1711" x1="190.809" y1="169.868" x2="250.497" y2="169.868" gradientUnits="userSpaceOnUse">
<stop stop-color="#FEAC5E"/>
<stop offset="0.5" stop-color="#C779D0"/>
<stop offset="1" stop-color="#4BC0C8"/>
</linearGradient>
<linearGradient id="paint1_linear_898_1711" x1="236.071" y1="167.874" x2="271.238" y2="167.874" gradientUnits="userSpaceOnUse">
<stop stop-color="#FEAC5E"/>
<stop offset="0.5" stop-color="#C779D0"/>
<stop offset="1" stop-color="#4BC0C8"/>
</linearGradient>
<linearGradient id="paint2_linear_898_1711" x1="162.66" y1="168.035" x2="206.529" y2="168.035" gradientUnits="userSpaceOnUse">
<stop stop-color="#FEAC5E"/>
<stop offset="0.5" stop-color="#C779D0"/>
<stop offset="1" stop-color="#4BC0C8"/>
</linearGradient>
<linearGradient id="paint3_linear_898_1711" x1="164.18" y1="180.346" x2="194.955" y2="180.346" gradientUnits="userSpaceOnUse">
<stop stop-color="#FEAC5E"/>
<stop offset="0.5" stop-color="#C779D0"/>
<stop offset="1" stop-color="#4BC0C8"/>
</linearGradient>
<linearGradient id="paint4_linear_898_1711" x1="247.691" y1="183.692" x2="257.062" y2="172.616" gradientUnits="userSpaceOnUse">
<stop stop-color="#FEAC5E"/>
<stop offset="0.5" stop-color="#C779D0"/>
<stop offset="1" stop-color="#4BC0C8"/>
</linearGradient>
<clipPath id="clip0_898_1711">
<rect width="328" height="255" fill="white"/>
</clipPath>
</defs>
</svg>
