<svg width="200" height="171" viewBox="0 0 200 171" fill="none" xmlns="http://www.w3.org/2000/svg">
<path d="M188.321 17.2505H0.331543V134.926H188.321V17.2505Z" fill="#E9E9E9"/>
<path d="M0.331543 17.2505L94.3263 72.5683L188.321 17.2505H0.331543Z" fill="#222222"/>
<path d="M164.576 153.717C183.997 153.717 199.741 138.012 199.741 118.638C199.741 99.2649 183.997 83.5596 164.576 83.5596C145.155 83.5596 129.411 99.2649 129.411 118.638C129.411 138.012 145.155 153.717 164.576 153.717Z" fill="#26AD50"/>
<path d="M158.547 137.531C157.88 137.531 157.239 137.277 156.754 136.82L143.397 124.247C142.893 123.773 142.599 123.119 142.579 122.428C142.559 121.738 142.814 121.068 143.29 120.565C143.765 120.063 144.421 119.769 145.113 119.749C145.806 119.729 146.477 119.984 146.981 120.458L158.402 131.209L182.03 105.236C182.495 104.724 183.145 104.418 183.837 104.384C184.528 104.351 185.205 104.593 185.718 105.057C186.231 105.521 186.538 106.17 186.571 106.86C186.605 107.55 186.362 108.225 185.897 108.736L160.48 136.676C160.246 136.933 159.964 137.14 159.65 137.287C159.335 137.433 158.994 137.515 158.647 137.529C158.613 137.53 158.58 137.531 158.547 137.531Z" fill="white"/>
</svg>
