<svg width="51" height="51" viewBox="0 0 51 51" fill="none" xmlns="http://www.w3.org/2000/svg">
<path d="M5 25.5C5 14.1782 14.1782 5 25.5 5V5C36.8218 5 46 14.1782 46 25.5V25.5C46 36.8218 36.8218 46 25.5 46V46C14.1782 46 5 36.8218 5 25.5V25.5Z" fill="white"/>
<path d="M26.7636 21.3408C26.7636 21.9621 26.2599 22.4658 25.6386 22.4658C25.0173 22.4658 24.5136 21.9621 24.5136 21.3408C24.5136 20.7195 25.0173 20.2158 25.6386 20.2158C26.2599 20.2158 26.7636 20.7195 26.7636 21.3408Z" fill="#222222"/>
<path d="M24.4818 24C24.0676 24 23.7318 24.3358 23.7318 24.75C23.7318 25.1642 24.0676 25.5 24.4818 25.5H25.2318V29.5H23.9818C23.5676 29.5 23.2318 29.8358 23.2318 30.25C23.2318 30.6642 23.5676 31 23.9818 31H27.9818C28.396 31 28.7318 30.6642 28.7318 30.25C28.7318 29.8358 28.396 29.5 27.9818 29.5H26.7318V25.25C26.7318 24.5596 26.1722 24 25.4818 24H24.4818Z" fill="#222222"/>
<path fill-rule="evenodd" clip-rule="evenodd" d="M15.75 25.5C15.75 20.1152 20.1152 15.75 25.5 15.75C30.8848 15.75 35.25 20.1152 35.25 25.5C35.25 30.8848 30.8848 35.25 25.5 35.25C20.1152 35.25 15.75 30.8848 15.75 25.5ZM25.5 17.25C20.9436 17.25 17.25 20.9436 17.25 25.5C17.25 30.0563 20.9436 33.75 25.5 33.75C30.0563 33.75 33.75 30.0563 33.75 25.5C33.75 20.9436 30.0563 17.25 25.5 17.25Z" fill="#222222"/>
</svg>
