<svg width="200" height="171" viewBox="0 0 200 171" fill="none" xmlns="http://www.w3.org/2000/svg">
<g clip-path="url(#clip0_4490_4586)">
<path d="M100 170.5C146.944 170.5 185 132.444 185 85.5C185 38.5558 146.944 0.5 100 0.5C53.0558 0.5 15 38.5558 15 85.5C15 132.444 53.0558 170.5 100 170.5Z" fill="#E9E9E9"/>
<path d="M100.362 54.0728C98.2251 54.0728 96.4928 52.3405 96.4927 50.2036V45.7749C96.4927 43.6379 98.225 41.9058 100.362 41.9058C102.499 41.9058 104.231 43.6379 104.231 45.7749V50.2036C104.231 52.3405 102.498 54.0727 100.362 54.0728Z" fill="white" stroke="black" stroke-width="1.81077"/>
<mask id="path-3-inside-1_4490_4586" fill="white">
<path d="M89.1985 120.061C89.2161 123.01 90.4 125.832 92.4915 127.911C94.5831 129.99 97.4123 131.157 100.361 131.157C103.31 131.157 106.14 129.99 108.231 127.911C110.323 125.832 111.506 123.01 111.524 120.061"/>
</mask>
<path d="M89.1985 120.061C89.2161 123.01 90.4 125.832 92.4915 127.911C94.5831 129.99 97.4123 131.157 100.361 131.157C103.31 131.157 106.14 129.99 108.231 127.911C110.323 125.832 111.506 123.01 111.524 120.061" fill="#F3F5FD"/>
<path d="M89.1985 120.061L87.3877 120.071C87.4083 123.499 88.7842 126.779 91.215 129.195L92.4915 127.911L93.7681 126.627C92.0159 124.885 91.024 122.52 91.0092 120.05L89.1985 120.061ZM92.4915 127.911L91.215 129.195C93.6457 131.611 96.9339 132.967 100.361 132.967V131.157V129.346C97.8906 129.346 95.5204 128.368 93.7681 126.627L92.4915 127.911ZM100.361 131.157V132.967C103.789 132.967 107.077 131.611 109.508 129.195L108.231 127.911L106.955 126.627C105.202 128.368 102.832 129.346 100.361 129.346V131.157ZM108.231 127.911L109.508 129.195C111.938 126.779 113.314 123.499 113.335 120.071L111.524 120.061L109.713 120.05C109.699 122.52 108.707 124.885 106.955 126.627L108.231 127.911Z" fill="black" mask="url(#path-3-inside-1_4490_4586)"/>
<path d="M89.1985 120.061C89.2161 123.01 90.4 125.832 92.4915 127.911C94.5831 129.99 97.4123 131.157 100.361 131.157C103.31 131.157 106.14 129.99 108.231 127.911C110.323 125.832 111.506 123.01 111.524 120.061" fill="#222222"/>
<path d="M100.36 47.6514C108.39 47.6515 116.094 50.8269 121.792 56.4844C127.49 62.142 130.72 69.823 130.777 77.8525V77.8721L130.778 77.8916V77.8926C130.778 77.8932 130.779 77.8943 130.779 77.8955C130.779 77.8981 130.779 77.9022 130.779 77.9072C130.78 77.9173 130.781 77.9323 130.782 77.9521C130.784 77.9918 130.787 78.0508 130.791 78.1279C130.799 78.2827 130.811 78.5114 130.827 78.8057C130.859 79.3943 130.908 80.2476 130.972 81.3066C131.099 83.4247 131.288 86.3674 131.536 89.666C132.031 96.2539 132.761 104.296 133.702 110.021C133.869 111.034 134.378 112.25 134.996 113.458C135.624 114.686 136.405 115.983 137.176 117.178V117.179C137.387 117.506 137.507 117.885 137.521 118.274C137.536 118.664 137.445 119.05 137.259 119.393C137.072 119.735 136.797 120.022 136.462 120.221C136.127 120.42 135.743 120.524 135.354 120.524H65.3662C64.9763 120.524 64.593 120.42 64.2578 120.221C63.9225 120.022 63.6474 119.735 63.4609 119.393C63.2745 119.05 63.1837 118.664 63.1982 118.274C63.2129 117.885 63.3324 117.506 63.5439 117.179V117.177C64.313 115.983 65.0945 114.686 65.7227 113.458C66.3408 112.25 66.8503 111.034 67.0166 110.021C67.9583 104.296 68.6888 96.2539 69.1836 89.666C69.4313 86.3674 69.6208 83.4247 69.748 81.3066C69.8117 80.2476 69.8603 79.3943 69.8926 78.8057C69.9087 78.5114 69.9206 78.2827 69.9287 78.1279C69.9328 78.0508 69.9364 77.9918 69.9385 77.9521C69.9395 77.9324 69.9399 77.9173 69.9404 77.9072C69.9407 77.9022 69.9403 77.8981 69.9404 77.8955C69.9405 77.8943 69.9414 77.8932 69.9414 77.8926V77.8916L69.9424 77.8721V77.8525C69.9998 69.823 73.2297 62.142 78.9277 56.4844C84.6259 50.8268 92.3305 47.6514 100.36 47.6514Z" fill="white" stroke="black" stroke-width="1.81077"/>
<path d="M153.76 126.5C164.396 126.5 173.019 135.122 173.02 145.758C173.02 156.394 164.397 165.016 153.76 165.017C143.123 165.017 134.5 156.394 134.5 145.758C134.5 135.122 143.123 126.5 153.76 126.5Z" fill="white" stroke="black"/>
<path d="M146.722 136.027C145.883 135.188 144.524 135.188 143.686 136.027C142.847 136.865 142.847 138.224 143.686 139.062L160.636 156.012C161.474 156.85 162.834 156.85 163.672 156.012C164.51 155.173 164.51 153.814 163.672 152.976L146.722 136.027Z" fill="black"/>
<path d="M163.672 138.809C164.51 137.971 164.51 136.612 163.672 135.774C162.834 134.935 161.474 134.935 160.636 135.774L143.686 152.723C142.847 153.561 142.847 154.92 143.686 155.759C144.524 156.597 145.883 156.597 146.722 155.759L163.672 138.809Z" fill="black"/>
<path d="M27.217 168.192C22.8409 166.838 18.5952 165.069 14.727 160.117C13.9331 159.102 13.1871 157.802 13.6222 156.588C13.9496 155.674 14.8956 155.088 15.8584 154.939C16.2167 154.886 16.5798 154.876 16.9405 154.908C16.9423 154.908 16.9442 154.908 16.9448 154.908C17.4994 154.964 18.0476 155.072 18.5825 155.228L18.7353 155.272C21.2886 155.997 23.7208 157.094 25.9532 158.527C26.1555 158.656 26.3956 158.713 26.6344 158.689C26.8732 158.664 27.0966 158.559 27.2682 158.392C27.4399 158.224 27.5497 158.004 27.5797 157.766C27.6098 157.528 27.5583 157.287 27.4337 157.082C27.206 156.711 26.941 156.364 26.6427 156.047C26.203 155.587 25.7213 155.17 25.2038 154.8C24.5158 154.299 23.7816 153.853 23.0636 153.395C20.3939 151.697 17.8647 149.788 15.5003 147.687C13.8123 146.186 12.1616 144.52 11.3594 142.409C10.9907 141.439 10.823 140.32 11.2628 139.379C11.9883 137.834 14.0434 137.402 15.7242 137.723C18.6692 138.286 21.0218 140.441 23.1083 142.589C24.8385 144.374 26.7772 146.351 29.2627 146.461C29.6865 146.5 30.1126 146.415 30.4883 146.215C31.1974 145.786 31.3797 144.793 31.1269 144.004C30.874 143.215 30.2883 142.585 29.7249 141.98C26.4424 138.466 23.2136 134.81 21.083 130.505C18.9524 126.201 18.0083 121.115 19.4894 116.544C19.8823 115.186 20.6049 113.947 21.593 112.935C22.6123 111.965 24.0372 111.356 25.4339 111.542C27.3368 111.792 28.7699 113.395 29.7342 115.05C33.0481 120.73 32.8459 127.689 33.7792 134.195C34.0404 136.017 34.4209 137.885 35.507 139.384C35.6071 139.529 35.7371 139.65 35.8884 139.739C36.7825 140.257 37.5854 139.214 37.9214 138.329C39.2473 134.829 39.5784 130.825 41.9518 127.929C42.8575 126.826 44.1395 125.904 45.5673 125.914C47.3115 125.926 48.8051 127.38 49.3141 129.045C49.8232 130.71 49.5185 132.521 48.9725 134.175C47.96 137.242 46.1462 139.997 44.0075 142.42C42.8801 143.698 41.6058 144.99 41.2676 146.659C41.1641 147.226 41.2074 147.81 41.3935 148.356C41.5796 148.901 41.9024 149.39 42.331 149.776C42.5315 149.95 42.7649 150.083 43.0175 150.165C43.27 150.247 43.5366 150.278 43.8013 150.256C44.3697 150.162 44.9115 149.948 45.3909 149.629C45.6002 149.51 45.8105 149.389 46.022 149.27C46.8556 148.797 47.6894 148.322 48.5234 147.847C50.6431 146.64 53.2029 145.406 55.4111 146.446C55.9572 146.724 56.4372 147.116 56.8188 147.594C57.2004 148.073 57.4748 148.628 57.6234 149.222C57.9339 150.31 57.9339 151.463 57.6234 152.552C56.9656 154.815 52.8199 161.115 51.1099 162.739C49.1144 164.64 42.1891 172.825 27.217 168.192Z" fill="#222222"/>
</g>
<defs>
<clipPath id="clip0_4490_4586">
<rect width="200" height="170" fill="white" transform="translate(0 0.5)"/>
</clipPath>
</defs>
</svg>
