<svg width="200" height="171" viewBox="0 0 200 171" fill="none" xmlns="http://www.w3.org/2000/svg">
<g clip-path="url(#clip0_4212_3883)">
<mask id="mask0_4212_3883" style="mask-type:luminance" maskUnits="userSpaceOnUse" x="0" y="0" width="200" height="167">
<path d="M199.676 0.5H0V166.185H199.676V0.5Z" fill="white"/>
</mask>
<g mask="url(#mask0_4212_3883)">
<path d="M198.761 113.327C193.307 85.8272 161.356 63.8487 155.124 35.1922C143.798 -1.26664 106.465 -7.03083 82.2057 8.80321C43.7667 33.8924 84.7732 40.1185 9.40677 99.4782C-9.20289 114.135 -3.27301 178.835 55.2719 163.987C86.7782 155.996 96.356 154.875 110.528 153.559C146.248 150.243 207.915 159.488 198.761 113.327Z" fill="white"/>
<path opacity="0.1" d="M198.761 113.327C193.307 85.8272 161.356 63.8487 155.124 35.1922C143.798 -1.26664 106.465 -7.03083 82.2057 8.80321C43.7667 33.8924 84.7732 40.1185 9.40677 99.4782C-9.20289 114.135 -3.27301 178.835 55.2719 163.987C86.7782 155.996 96.356 154.875 110.528 153.559C146.248 150.243 207.915 159.488 198.761 113.327Z" fill="#222222"/>
<path d="M132.358 136.844H52.9242C49.2977 136.844 45.7882 135.562 43.0154 133.225C40.243 130.887 38.3857 127.646 37.7721 124.072L26.8562 60.4888H158.426L147.51 124.072C146.897 127.646 145.039 130.888 142.267 133.225C139.494 135.562 135.985 136.844 132.358 136.844Z" fill="white"/>
<path d="M157.833 60.9888L147.017 123.987C146.461 127.228 144.847 130.189 142.437 132.409L141.944 132.842C139.262 135.103 135.867 136.344 132.358 136.344H52.9246C49.6352 136.344 46.4447 135.254 43.8484 133.254L43.3376 132.842C40.823 130.722 39.0867 127.833 38.3904 124.631L38.2654 123.987L27.45 60.9888H157.833Z" fill="white" fill-opacity="0.9" stroke="#222222"/>
<path d="M158.711 54.3555H26.5718C23.4397 54.3555 20.9006 56.8945 20.9006 60.0263C20.9006 63.1581 23.4397 65.6971 26.5718 65.6971H158.711C161.843 65.6971 164.382 63.1581 164.382 60.0263C164.382 56.8945 161.843 54.3555 158.711 54.3555Z" fill="white"/>
<path d="M158.712 66.145H26.5717C24.9491 66.145 23.3929 65.5003 22.2456 64.3534C21.0982 63.206 20.4536 61.6498 20.4536 60.0273C20.4536 58.4049 21.0982 56.8487 22.2456 55.7013C23.3929 54.5543 24.9491 53.9097 26.5717 53.9097H158.712C160.334 53.9097 161.891 54.5543 163.038 55.7013C164.185 56.8487 164.83 58.4049 164.83 60.0273C164.83 61.6498 164.185 63.206 163.038 64.3534C161.891 65.5003 160.334 66.145 158.712 66.145ZM26.5731 54.8041C25.1877 54.8041 23.8591 55.3543 22.8794 56.3338C21.8998 57.3134 21.3495 58.6421 21.3495 60.0273C21.3495 61.4126 21.8998 62.7413 22.8794 63.7208C23.8591 64.7004 25.1877 65.2506 26.5731 65.2506H158.712C160.097 65.2506 161.426 64.7004 162.406 63.7208C163.385 62.7413 163.936 61.4126 163.936 60.0273C163.936 58.6421 163.385 57.3134 162.406 56.3338C161.426 55.3543 160.097 54.8041 158.712 54.8041H26.5731Z" fill="black"/>
<path d="M110.138 56.546C108.661 58.4035 108.969 61.1063 110.826 62.5835C112.684 64.0607 115.387 63.7527 116.864 61.8955L142.153 30.1034C143.631 28.2462 143.323 25.5432 141.465 24.066C139.608 22.5888 136.905 22.8969 135.428 24.754L110.138 56.546Z" fill="white"/>
<path d="M113.491 63.9664C112.421 63.9671 111.382 63.6029 110.547 62.9343C109.563 62.1504 108.931 61.0081 108.789 59.7584C108.646 58.5091 109.006 57.2541 109.787 56.2689L135.077 24.4763C135.464 23.9887 135.944 23.5823 136.489 23.2803C137.034 22.9783 137.633 22.7865 138.253 22.716C138.871 22.6455 139.498 22.6976 140.097 22.8694C140.696 23.0411 141.255 23.3291 141.743 23.7169C142.23 24.1047 142.637 24.5848 142.939 25.1297C143.241 25.6746 143.433 26.2737 143.503 26.8926C143.574 27.5116 143.522 28.1384 143.35 28.7373C143.178 29.3361 142.89 29.8953 142.502 30.3829L117.214 62.1751C116.827 62.6638 116.347 63.0713 115.802 63.3732C115.257 63.6755 114.657 63.8666 114.038 63.9353C113.856 63.956 113.674 63.9664 113.491 63.9664ZM111.104 62.2345C111.499 62.5493 111.953 62.7829 112.439 62.9224C112.925 63.0616 113.434 63.1038 113.936 63.0466C114.439 62.9893 114.925 62.8337 115.367 62.5887C115.809 62.3436 116.199 62.0137 116.513 61.6181L141.802 29.8255C142.117 29.4299 142.351 28.9761 142.49 28.4902C142.63 28.0042 142.672 27.4956 142.615 26.9933C142.558 26.4909 142.402 26.0048 142.157 25.5626C141.912 25.1204 141.582 24.7308 141.186 24.416C140.791 24.1012 140.337 23.8674 139.851 23.728C139.365 23.5886 138.856 23.5462 138.354 23.6034C137.852 23.6606 137.366 23.8161 136.923 24.0611C136.481 24.3062 136.092 24.6359 135.777 25.0315L110.488 56.8237C109.853 57.623 109.562 58.6415 109.677 59.6558C109.793 60.6696 110.306 61.5966 111.104 62.2327V62.2345Z" fill="black"/>
<path d="M113.213 61.2023C114.107 61.2023 114.832 60.4775 114.832 59.5831C114.832 58.6887 114.107 57.9639 113.213 57.9639C112.318 57.9639 111.594 58.6887 111.594 59.5831C111.594 60.4775 112.318 61.2023 113.213 61.2023Z" fill="white"/>
<path d="M113.217 61.6501C112.912 61.6505 112.61 61.5829 112.333 61.4523C112.057 61.3221 111.812 61.1317 111.618 60.896C111.424 60.6598 111.284 60.3837 111.21 60.0871C111.135 59.7908 111.127 59.4814 111.186 59.1816C111.262 58.7981 111.445 58.4439 111.715 58.1602C111.985 57.8768 112.329 57.6758 112.708 57.5803C113.088 57.4851 113.487 57.4994 113.858 57.6214C114.23 57.7438 114.559 57.9691 114.807 58.2711C115.056 58.573 115.214 58.9394 115.263 59.3276C115.311 59.7157 115.248 60.1096 115.082 60.4638C114.915 60.8176 114.651 61.1171 114.322 61.3271C113.992 61.5371 113.609 61.649 113.217 61.6501ZM112.063 59.3555C112.01 59.6216 112.051 59.8978 112.179 60.1368C112.307 60.3761 112.514 60.5636 112.765 60.6674C113.016 60.7711 113.294 60.7847 113.554 60.7056C113.814 60.6269 114.038 60.4606 114.189 60.2348C114.339 60.0094 114.407 59.7386 114.38 59.4685C114.353 59.1988 114.234 58.9462 114.042 58.7544C113.85 58.5627 113.597 58.4435 113.328 58.4171C113.058 58.3906 112.787 58.4586 112.561 58.6095C112.303 58.7823 112.124 59.0506 112.063 59.3555Z" fill="black"/>
<path d="M49.8554 24.7545C48.3781 22.8973 45.6751 22.5893 43.8178 24.0665C41.9606 25.5437 41.6525 28.2467 43.1298 30.1038L68.4189 61.8959C69.8962 63.7533 72.5996 64.061 74.4568 62.5838C76.314 61.1066 76.6221 58.4038 75.1448 56.5466L49.8554 24.7545Z" fill="white"/>
<path d="M71.7868 63.9634C71.0723 63.9648 70.3667 63.8046 69.7231 63.4947C69.0791 63.1853 68.5138 62.7338 68.0691 62.1746L42.7796 30.3824C41.9964 29.3977 41.6361 28.1423 41.7785 26.8922C41.9209 25.6421 42.5542 24.4997 43.5392 23.7165C44.5238 22.9332 45.7792 22.5732 47.0293 22.7156C48.2798 22.858 49.4222 23.4911 50.2054 24.4758L75.4948 56.2684C76.0504 56.9664 76.3978 57.8067 76.4973 58.6933C76.5968 59.5798 76.444 60.4763 76.0569 61.2799C75.6694 62.0837 75.0633 62.7617 74.308 63.2364C73.5528 63.7112 72.6787 63.963 71.7868 63.9634ZM46.4887 23.581C45.7649 23.5816 45.0558 23.7862 44.4433 24.1715C43.8304 24.5567 43.3385 25.1069 43.0243 25.7589C42.7102 26.411 42.5864 27.1384 42.6669 27.8577C42.7474 28.577 43.029 29.259 43.4798 29.8254L68.7689 61.6176C69.405 62.4157 70.332 62.9288 71.346 63.0443C72.3603 63.1599 73.3785 62.8683 74.1782 62.234C74.5739 61.9192 74.9038 61.5299 75.1488 61.0877C75.3939 60.6456 75.5495 60.1594 75.6068 59.6571C75.664 59.1548 75.6218 58.6464 75.4826 58.1602C75.3431 57.6744 75.1095 57.2207 74.7946 56.825L49.5055 25.0328C49.1445 24.5791 48.6859 24.2128 48.1635 23.9614C47.6411 23.7101 47.0683 23.58 46.4887 23.581Z" fill="black"/>
<path d="M72.0695 61.2023C72.964 61.2023 73.6888 60.4775 73.6888 59.5831C73.6888 58.6887 72.964 57.9639 72.0695 57.9639C71.1751 57.9639 70.4502 58.6887 70.4502 59.5831C70.4502 60.4775 71.1751 61.2023 72.0695 61.2023Z" fill="white"/>
<path d="M72.0652 61.6501C71.6738 61.6493 71.2906 61.5374 70.9603 61.3277C70.6298 61.1177 70.3657 60.8183 70.199 60.4641C70.0323 60.1099 69.9693 59.716 70.0179 59.3275C70.0662 58.939 70.224 58.5723 70.4727 58.2703C70.7213 57.968 71.0509 57.7426 71.4226 57.6203C71.7943 57.4979 72.1933 57.4836 72.5729 57.5788C72.9525 57.6743 73.2974 57.8757 73.5671 58.1594C73.8365 58.4431 74.0201 58.7976 74.0963 59.1815C74.1553 59.4813 74.1471 59.7908 74.0723 60.087C73.9975 60.3836 73.8584 60.6594 73.6641 60.8955C73.4698 61.1317 73.2258 61.3216 72.9493 61.4522C72.6727 61.5828 72.3707 61.6501 72.0652 61.6501ZM72.072 58.4109C71.8301 58.4102 71.5943 58.4846 71.3965 58.6231C71.1986 58.7619 71.0484 58.9586 70.9664 59.1858C70.8845 59.4134 70.8748 59.6606 70.9389 59.8935C71.0029 60.1264 71.1374 60.3339 71.3242 60.4877C71.5106 60.6412 71.7403 60.7335 71.9811 60.7517C72.2222 60.7696 72.463 60.7131 72.6705 60.5889C72.8781 60.4652 73.0419 60.2798 73.1403 60.0591C73.2383 59.8384 73.2659 59.5926 73.219 59.3554C73.1661 59.0896 73.0233 58.8506 72.814 58.6785C72.6051 58.5061 72.3428 58.4116 72.072 58.4109Z" fill="black"/>
<path d="M95.9893 85.6403C95.9893 83.791 94.4902 82.292 92.6408 82.292C90.7918 82.292 89.2927 83.791 89.2927 85.6403V117.295C89.2927 119.144 90.7918 120.643 92.6408 120.643C94.4902 120.643 95.9893 119.144 95.9893 117.295V85.6403Z" fill="#222222"/>
<path d="M63.9806 85.3143C63.6962 83.4869 61.9846 82.2361 60.1574 82.5202C58.3302 82.8043 57.0794 84.5158 57.3635 86.3432L62.2272 117.622C62.5112 119.449 64.2229 120.7 66.0501 120.416C67.8776 120.132 69.1284 118.421 68.8443 116.593L63.9806 85.3143Z" fill="#222222"/>
<path d="M117.129 116.593C116.845 118.42 118.096 120.132 119.923 120.416C121.75 120.7 123.462 119.449 123.746 117.622L128.61 86.3424C128.894 84.5153 127.643 82.8038 125.816 82.5197C123.989 82.2357 122.277 83.4864 121.993 85.3138L117.129 116.593Z" fill="#222222"/>
<path d="M147.181 149.812C158.095 149.812 166.941 140.966 166.941 130.053C166.941 119.141 158.095 110.295 147.181 110.295C136.268 110.295 127.422 119.141 127.422 130.053C127.422 140.966 136.268 149.812 147.181 149.812Z" fill="white"/>
<path d="M147.181 150.258C143.185 150.258 139.278 149.072 135.955 146.852C132.632 144.632 130.042 141.476 128.513 137.784C126.983 134.092 126.583 130.029 127.363 126.11C128.143 122.19 130.067 118.59 132.893 115.764C135.719 112.939 139.32 111.014 143.24 110.235C147.159 109.455 151.222 109.856 154.915 111.385C158.607 112.914 161.763 115.504 163.983 118.827C166.203 122.15 167.388 126.056 167.388 130.053C167.382 135.41 165.251 140.545 161.463 144.333C157.674 148.121 152.539 150.252 147.181 150.258ZM147.181 110.741C143.361 110.741 139.628 111.874 136.452 113.996C133.276 116.118 130.801 119.134 129.339 122.662C127.877 126.191 127.495 130.074 128.24 133.82C128.985 137.565 130.825 141.006 133.526 143.707C136.227 146.408 139.668 148.247 143.414 148.992C147.16 149.737 151.043 149.355 154.572 147.893C158.101 146.432 161.117 143.957 163.239 140.781C165.361 137.606 166.494 133.872 166.494 130.053C166.488 124.933 164.451 120.024 160.831 116.404C157.21 112.784 152.301 110.748 147.181 110.742V110.741Z" fill="black"/>
<path d="M140.143 120.322C139.305 119.483 137.946 119.483 137.108 120.322C136.269 121.16 136.269 122.519 137.108 123.357L154.058 140.306C154.896 141.145 156.255 141.145 157.094 140.306C157.932 139.468 157.932 138.109 157.094 137.271L140.143 120.322Z" fill="black"/>
<path d="M157.094 123.104C157.932 122.266 157.932 120.907 157.094 120.069C156.256 119.23 154.896 119.23 154.058 120.069L137.108 137.018C136.269 137.856 136.269 139.215 137.108 140.054C137.946 140.892 139.305 140.892 140.144 140.054L157.094 123.104Z" fill="black"/>
</g>
</g>
<defs>
<clipPath id="clip0_4212_3883">
<rect width="200" height="170" fill="white" transform="translate(0 0.5)"/>
</clipPath>
</defs>
</svg>
