<svg width="200" height="171" viewBox="0 0 200 171" fill="none" xmlns="http://www.w3.org/2000/svg">
<g clip-path="url(#clip0_4220_3958)">
<path d="M131.186 0.93457L154.2 25.2227V141.084H45.7231V0.93457H131.186Z" fill="white" stroke="black"/>
<path d="M153.538 24.5244H131.901V1.68848L153.538 24.5244Z" fill="white" stroke="black"/>
<path d="M122.395 60.4543V66.6834C122.395 67.7429 121.974 68.759 121.223 69.5082C120.473 70.2573 119.456 70.6782 118.395 70.6782H38.1208C37.06 70.6782 36.0426 71.0991 35.2924 71.8483C34.5423 72.5974 34.1208 73.6135 34.1208 74.673V165.787C34.1208 166.846 34.5423 167.862 35.2924 168.612C36.0426 169.361 37.06 169.782 38.1208 169.782H161.803C162.864 169.782 163.881 169.361 164.631 168.612C165.381 167.862 165.803 166.846 165.803 165.787V60.4543C165.803 59.3948 165.381 58.3787 164.631 57.6295C163.881 56.8804 162.864 56.4595 161.803 56.4595H126.396C125.871 56.4593 125.351 56.5625 124.865 56.7632C124.38 56.9639 123.939 57.2581 123.567 57.629C123.196 58 122.901 58.4405 122.7 58.9252C122.499 59.41 122.395 59.9295 122.395 60.4543Z" fill="#E9E9E9"/>
<path d="M100.165 142.207C114.063 142.207 125.33 130.967 125.33 117.103C125.33 103.239 114.063 92 100.165 92C86.2668 92 75 103.239 75 117.103C75 130.967 86.2668 142.207 100.165 142.207Z" fill="#FF5A49"/>
<rect x="86.1555" y="105.912" width="2.86251" height="35.7607" rx="1.43125" transform="rotate(-45 86.1555 105.912)" fill="white"/>
<rect x="111.442" y="103.888" width="2.86251" height="35.7607" rx="1.43125" transform="rotate(45 111.442 103.888)" fill="white"/>
</g>
<defs>
<clipPath id="clip0_4220_3958">
<rect width="200" height="170" fill="white" transform="translate(0 0.5)"/>
</clipPath>
</defs>
</svg>
