<svg width="200" height="170" viewBox="0 0 200 170" fill="none" xmlns="http://www.w3.org/2000/svg">
<path d="M100 169.814C146.871 169.814 184.867 131.8 184.867 84.9069C184.867 38.0141 146.871 0 100 0C53.1293 0 15.1331 38.0141 15.1331 84.9069C15.1331 131.8 53.1293 169.814 100 169.814Z" fill="white"/>
<path opacity="0.1" d="M100 169.814C146.871 169.814 184.867 131.8 184.867 84.9069C184.867 38.0141 146.871 0 100 0C53.1293 0 15.1331 38.0141 15.1331 84.9069C15.1331 131.8 53.1293 169.814 100 169.814Z" fill="#222222"/>
<path d="M44.8446 113.746L4.25854 113.622L4.42554 58.4609L32.4899 58.546L44.9736 71.1117L44.8446 113.746Z" fill="white"/>
<path opacity="0.3" d="M32.4897 58.5461L32.4517 71.0738L44.9734 71.1118L32.4897 58.5461Z" fill="#222222"/>
<path d="M45.229 71.0963C45.2274 71.0736 45.223 71.0513 45.2158 71.0298C45.2129 71.0215 45.2109 71.0135 45.2073 71.0052C45.1952 70.9771 45.1781 70.9514 45.1569 70.9294L32.6731 58.3638C32.6511 58.3422 32.6255 58.3246 32.5974 58.3121C32.5895 58.3087 32.5815 58.3058 32.5733 58.3033C32.5516 58.2957 32.529 58.2912 32.5061 58.2898C32.5007 58.2898 32.4958 58.2864 32.4903 58.2864L4.42627 58.2024C4.35771 58.2024 4.29196 58.2296 4.24348 58.2781C4.195 58.3266 4.16777 58.3924 4.16777 58.461L4 113.622C4 113.69 4.02723 113.756 4.07571 113.805C4.12419 113.853 4.18994 113.88 4.2585 113.88L44.843 114.004C44.9116 114.004 44.9773 113.977 45.0258 113.928C45.0743 113.88 45.1015 113.814 45.1015 113.746L45.2308 71.1118C45.2321 71.1069 45.2292 71.1019 45.229 71.0963ZM32.7452 59.1715L38.5098 64.9716L44.3503 70.8506L32.7111 70.8151L32.7452 59.1715ZM4.517 113.365L4.68244 58.7204L32.2295 58.8039L32.1926 71.073C32.1926 71.1416 32.2198 71.2073 32.2683 71.2558C32.3167 71.3043 32.3825 71.3316 32.451 71.3316L44.7143 71.3688L44.5869 113.485L4.517 113.365Z" fill="#222222"/>
<path d="M127.585 111.538L72.2393 111.37L72.467 36.1487L110.737 36.2648L127.761 53.4001L127.585 111.538Z" fill="white"/>
<path opacity="0.3" d="M110.737 36.2646L110.685 53.3482L127.761 53.3999L110.737 36.2646Z" fill="#222222"/>
<path d="M128.016 53.3845C128.015 53.3619 128.011 53.3397 128.003 53.3183C128.001 53.3097 127.998 53.3017 127.995 53.2924C127.982 53.2644 127.966 53.2387 127.944 53.2166L110.921 36.0814C110.899 36.0598 110.873 36.0422 110.845 36.0296C110.837 36.026 110.829 36.024 110.821 36.0211C110.799 36.0136 110.777 36.009 110.754 36.0074C110.748 36.0074 110.743 36.0043 110.738 36.0043L72.4677 35.8882C72.3991 35.8882 72.3334 35.9154 72.2849 35.9639C72.2364 36.0124 72.2092 36.0782 72.2092 36.1468L71.9814 111.369C71.9814 111.437 72.0087 111.503 72.0572 111.551C72.1056 111.6 72.1714 111.627 72.2399 111.627L127.585 111.795C127.653 111.795 127.719 111.768 127.768 111.719C127.816 111.671 127.843 111.605 127.843 111.536L128.019 53.3982C128.019 53.3951 128.017 53.3902 128.016 53.3845ZM110.993 36.8898L127.137 53.1396L110.944 53.0904L110.993 36.8898ZM72.4984 111.113L72.7246 36.408L110.478 36.5226L110.426 53.3475C110.426 53.4161 110.453 53.4819 110.502 53.5304C110.55 53.5789 110.616 53.6061 110.685 53.6061L127.502 53.6578L127.327 111.279L72.4984 111.113Z" fill="#222222"/>
<path d="M195.613 113.746L155.027 113.623L155.194 58.4612L183.258 58.5463L195.742 71.1119L195.613 113.746Z" fill="white"/>
<path opacity="0.3" d="M183.258 58.5461L183.22 71.0738L195.742 71.1118L183.258 58.5461Z" fill="#222222"/>
<path d="M195.997 71.0963C195.996 71.0737 195.991 71.0513 195.984 71.0298C195.981 71.0216 195.979 71.0135 195.975 71.0053C195.963 70.9772 195.946 70.9516 195.925 70.9295L183.441 58.3638C183.419 58.3422 183.394 58.3247 183.366 58.3121C183.358 58.3085 183.35 58.3062 183.341 58.3033C183.32 58.2958 183.297 58.2912 183.274 58.2899C183.269 58.2899 183.264 58.2865 183.259 58.2865L155.194 58.2014C155.126 58.2014 155.06 58.2287 155.012 58.2772C154.963 58.3257 154.936 58.3914 154.936 58.46L154.769 113.622C154.769 113.69 154.796 113.756 154.844 113.804C154.893 113.853 154.959 113.88 155.027 113.88L195.613 114.003C195.682 114.003 195.748 113.976 195.796 113.927C195.845 113.879 195.872 113.813 195.872 113.745L196.001 71.1108C196 71.1069 195.997 71.102 195.997 71.0963ZM183.514 59.1715L189.277 64.9716L195.118 70.8506L183.479 70.8152L183.514 59.1715ZM155.286 113.365L155.451 58.7205L182.999 58.804L182.962 71.073C182.962 71.1416 182.989 71.2074 183.037 71.2559C183.086 71.3044 183.152 71.3316 183.22 71.3316L195.483 71.3689L195.356 113.485L155.286 113.365Z" fill="#222222"/>
<path d="M86.1762 79.9846C88.3159 79.9846 90.0506 78.2492 90.0506 76.1084C90.0506 73.9676 88.3159 72.2322 86.1762 72.2322C84.0364 72.2322 82.3018 73.9676 82.3018 76.1084C82.3018 78.2492 84.0364 79.9846 86.1762 79.9846Z" fill="#222222"/>
<path d="M112.743 79.9846C114.883 79.9846 116.617 78.2492 116.617 76.1084C116.617 73.9676 114.883 72.2322 112.743 72.2322C110.603 72.2322 108.868 73.9676 108.868 76.1084C108.868 78.2492 110.603 79.9846 112.743 79.9846Z" fill="#222222"/>
<path d="M104.654 86.8283H94.2651C94.1965 86.8283 94.1308 86.801 94.0823 86.7525C94.0338 86.704 94.0066 86.6382 94.0066 86.5697C94.0066 86.5011 94.0338 86.4353 94.0823 86.3868C94.1308 86.3383 94.1965 86.311 94.2651 86.311H104.654C104.722 86.311 104.788 86.3383 104.836 86.3868C104.885 86.4353 104.912 86.5011 104.912 86.5697C104.912 86.6382 104.885 86.704 104.836 86.7525C104.788 86.801 104.722 86.8283 104.654 86.8283Z" fill="#222222"/>
<path d="M82.1795 87.1962C84.0883 87.1962 85.6357 86.3814 85.6357 85.3763C85.6357 84.3712 84.0883 83.5564 82.1795 83.5564C80.2708 83.5564 78.7234 84.3712 78.7234 85.3763C78.7234 86.3814 80.2708 87.1962 82.1795 87.1962Z" fill="white"/>
<path d="M116.739 87.1962C118.648 87.1962 120.195 86.3814 120.195 85.3763C120.195 84.3712 118.648 83.5564 116.739 83.5564C114.831 83.5564 113.283 84.3712 113.283 85.3763C113.283 86.3814 114.831 87.1962 116.739 87.1962Z" fill="white"/>
<g opacity="0.4">
<path d="M82.1795 87.1962C84.0883 87.1962 85.6357 86.3814 85.6357 85.3763C85.6357 84.3712 84.0883 83.5564 82.1795 83.5564C80.2708 83.5564 78.7234 84.3712 78.7234 85.3763C78.7234 86.3814 80.2708 87.1962 82.1795 87.1962Z" fill="#222222"/>
<path d="M116.739 87.1962C118.648 87.1962 120.195 86.3814 120.195 85.3763C120.195 84.3712 118.648 83.5564 116.739 83.5564C114.831 83.5564 113.283 84.3712 113.283 85.3763C113.283 86.3814 114.831 87.1962 116.739 87.1962Z" fill="#222222"/>
</g>
<path d="M128.489 54.5407C121.617 46.6509 111.892 41.8139 101.454 41.0937C91.0159 40.3734 80.7192 43.8289 72.8287 50.7001C59.6463 62.181 55.5954 81.2686 62.9796 97.1224C64.4623 100.299 66.3634 103.263 68.6324 105.936L69.1171 106.51L32.983 144.857C32.3223 145.569 31.9696 146.513 32.0021 147.483C32.0345 148.454 32.4493 149.372 33.1561 150.038C33.8628 150.704 34.8042 151.063 35.7749 151.038C36.7456 151.012 37.6669 150.604 38.3378 149.902L74.4629 111.561L75.0663 112.013C82.8621 117.86 92.5462 120.615 102.253 119.748C111.959 118.88 121.001 114.45 127.636 107.313C134.27 100.175 138.029 90.8344 138.186 81.0906C138.344 71.3468 134.89 61.8893 128.49 54.5407H128.489ZM130.754 82.6602C130.195 90.7618 126.585 98.3503 120.653 103.896C114.72 109.442 106.906 112.533 98.7854 112.546C98.0355 112.546 97.2832 112.519 96.5283 112.465C91.2569 112.108 86.1553 110.455 81.6758 107.653C77.1963 104.851 73.4774 100.987 70.8489 96.4038C68.2204 91.8204 66.7636 86.6593 66.6075 81.3781C66.4515 76.0968 67.6011 70.8587 69.9544 66.1282C72.3077 61.3976 75.7919 57.3209 80.0982 54.2595C84.4044 51.1982 89.3996 49.2467 94.6406 48.5783C99.8817 47.9098 105.207 48.545 110.144 50.4275C115.08 52.31 119.476 55.3817 122.942 59.3701C125.718 62.5436 127.838 66.2358 129.179 70.2333C130.52 74.2308 131.055 78.4545 130.754 82.6602Z" fill="#222222"/>
</svg>
