<svg width="200" height="171" viewBox="0 0 200 171" fill="none" xmlns="http://www.w3.org/2000/svg">
<path d="M183.412 164.5C185.653 164.5 187.87 163.993 189.93 163.01C191.99 162.026 193.85 160.587 195.398 158.778C196.947 156.969 198.152 154.829 198.94 152.486C199.728 150.143 200.083 147.646 199.984 145.145C199.438 131.353 191.593 111.586 170.212 93.7344C140.545 68.9647 160.105 12.4072 121.162 6.5014C57.151 -3.20512 69.2606 60.2796 29.7355 83.4251C4.57591 98.1574 0.00165052 126.986 0 145.994C0.00411312 150.906 1.75377 155.614 4.86424 159.085C7.9747 162.555 12.1913 164.503 16.5868 164.5H183.412Z" fill="#E9E9E9"/>
<path d="M128.926 14.4956L149.976 36.7046V143.12H50.5326V14.4956H128.926Z" fill="white" fill-opacity="0.8" stroke="black" stroke-width="1.56859"/>
<path d="M148.936 35.6077H130.047V15.678L148.936 35.6077Z" fill="white" fill-opacity="0.8" stroke="black" stroke-width="1.56859"/>
<path d="M124.994 66.2405H157.796C158.181 66.2405 158.562 66.3156 158.917 66.4612C159.272 66.6067 159.594 66.8201 159.865 67.0881C160.136 67.3561 160.351 67.6737 160.497 68.0227C160.643 68.3718 160.719 68.746 160.719 69.1233V165.788L160.705 166.071C160.677 166.351 160.607 166.627 160.497 166.889C160.351 167.238 160.136 167.556 159.865 167.824C159.594 168.093 159.272 168.306 158.917 168.451C158.562 168.597 158.181 168.672 157.796 168.672H43.2098C42.4321 168.672 41.688 168.366 41.1405 167.824C40.5932 167.283 40.287 166.55 40.287 165.788V82.175L40.3016 81.8909C40.3678 81.233 40.6618 80.6135 41.1405 80.1399C41.6197 79.6658 42.2495 79.3718 42.9208 79.3059L43.2098 79.2922H117.579C118.767 79.2922 119.909 78.8251 120.752 77.9915C121.595 77.1573 122.071 76.0235 122.071 74.8401V69.1233L122.085 68.842C122.113 68.5611 122.182 68.2847 122.292 68.0227C122.438 67.6737 122.653 67.3561 122.924 67.0881C123.195 66.82 123.518 66.6067 123.873 66.4612C124.139 66.3521 124.42 66.2821 124.706 66.2542L124.994 66.2405Z" fill="white" stroke="black" stroke-width="1.56859"/>
<path d="M25.1982 168.192C20.8221 166.838 16.5764 165.069 12.7082 160.117C11.9143 159.102 11.1683 157.802 11.6034 156.588C11.9308 155.674 12.8768 155.088 13.8396 154.939C14.1979 154.886 14.561 154.876 14.9217 154.908C14.9235 154.908 14.9254 154.908 14.926 154.908C15.4806 154.964 16.0288 155.072 16.5637 155.228L16.7165 155.272C19.2698 155.997 21.702 157.094 23.9344 158.527C24.1367 158.656 24.3768 158.713 24.6156 158.689C24.8544 158.664 25.0778 158.559 25.2494 158.392C25.4211 158.224 25.5309 158.004 25.5609 157.766C25.591 157.528 25.5395 157.287 25.4149 157.082C25.1872 156.711 24.9222 156.364 24.6239 156.047C24.1842 155.587 23.7025 155.17 23.185 154.8C22.497 154.299 21.7628 153.853 21.0448 153.395C18.3751 151.697 15.8459 149.788 13.4815 147.687C11.7935 146.186 10.1428 144.52 9.34055 142.409C8.97189 141.439 8.80418 140.32 9.24396 139.379C9.96948 137.834 12.0246 137.402 13.7054 137.723C16.6504 138.286 19.003 140.441 21.0895 142.589C22.8197 144.374 24.7584 146.351 27.2439 146.461C27.6677 146.5 28.0938 146.415 28.4695 146.215C29.1786 145.786 29.3609 144.793 29.1081 144.004C28.8552 143.215 28.2695 142.585 27.7061 141.98C24.4236 138.466 21.1948 134.81 19.0642 130.505C16.9336 126.201 15.9895 121.115 17.4706 116.544C17.8635 115.186 18.5861 113.947 19.5742 112.935C20.5935 111.965 22.0184 111.356 23.4151 111.542C25.318 111.792 26.7511 113.395 27.7154 115.05C31.0293 120.73 30.8271 127.689 31.7604 134.195C32.0216 136.017 32.4021 137.885 33.4882 139.384C33.5883 139.529 33.7183 139.65 33.8696 139.739C34.7637 140.257 35.5666 139.214 35.9026 138.329C37.2285 134.829 37.5596 130.825 39.933 127.929C40.8387 126.826 42.1207 125.904 43.5485 125.914C45.2927 125.926 46.7863 127.38 47.2953 129.045C47.8044 130.71 47.4997 132.521 46.9537 134.175C45.9412 137.242 44.1274 139.997 41.9887 142.42C40.8613 143.698 39.587 144.99 39.2488 146.659C39.1453 147.226 39.1886 147.81 39.3747 148.356C39.5608 148.901 39.8836 149.39 40.3122 149.776C40.5127 149.95 40.7461 150.083 40.9987 150.165C41.2512 150.247 41.5178 150.278 41.7825 150.256C42.3509 150.162 42.8927 149.948 43.3721 149.629C43.5814 149.51 43.7917 149.389 44.0032 149.27C44.8368 148.797 45.6706 148.322 46.5046 147.847C48.6243 146.64 51.1841 145.406 53.3923 146.446C53.9384 146.724 54.4184 147.116 54.8 147.594C55.1816 148.073 55.456 148.628 55.6046 149.222C55.9151 150.31 55.9151 151.463 55.6046 152.552C54.9468 154.815 50.8011 161.115 49.0911 162.739C47.0956 164.64 40.1703 172.825 25.1982 168.192Z" fill="#222222"/>
</svg>
