<svg width="231" height="255" viewBox="0 0 231 255" fill="none" xmlns="http://www.w3.org/2000/svg">
<g clip-path="url(#clip0_2200_1744)">
<path d="M74.8506 89.6785L44.5477 211.774C43.2709 216.909 43.6538 222.316 45.6415 227.22C47.6291 232.124 51.1193 236.272 55.6111 239.069C67.1703 246.257 86.2804 254.038 115.504 254.931C146.479 255.876 167.086 246.978 179.271 238.901C183.577 236.043 186.894 231.924 188.766 227.107C190.638 222.29 190.974 217.012 189.727 211.996L159.368 89.6785" fill="#DADADA" fill-opacity="0.5"/>
<path d="M117.109 95.3495C157.286 95.3495 189.855 84.3661 189.855 70.8174C189.855 57.2687 157.286 46.2853 117.109 46.2853C76.932 46.2853 44.3623 57.2687 44.3623 70.8174C44.3623 84.3661 76.932 95.3495 117.109 95.3495Z" fill="black"/>
<path d="M117.109 95.7566C97.6342 95.7566 79.3197 93.1973 65.5391 88.5488C51.6204 83.855 43.9548 77.5575 43.9548 70.8163C43.9548 64.0751 51.6197 57.7776 65.5391 53.0838C79.3197 48.4367 97.6342 45.876 117.109 45.876C136.584 45.876 154.898 48.4356 168.679 53.0838C182.597 57.7776 190.263 64.0751 190.263 70.8163C190.263 77.5575 182.598 83.855 168.679 88.5488C154.898 93.1973 136.583 95.7566 117.109 95.7566ZM117.109 46.6924C97.7203 46.6924 79.4983 49.2366 65.799 53.8562C52.2378 58.4295 44.7691 64.4531 44.7691 70.8174C44.7691 77.1816 52.2378 83.2052 65.799 87.7785C79.4983 92.3982 97.7207 94.9423 117.109 94.9423C136.497 94.9423 154.719 92.3982 168.418 87.7785C181.98 83.2052 189.448 77.1816 189.448 70.8174C189.448 64.4531 181.98 58.4295 168.418 53.8562C154.719 49.2366 136.497 46.6924 117.109 46.6924Z" fill="black"/>
<path d="M117.109 86.004C169.896 86.004 212.688 74.2316 212.688 59.7096C212.688 45.1877 169.896 33.4153 117.109 33.4153C64.3219 33.4153 21.5295 45.1877 21.5295 59.7096C21.5295 74.2316 64.3219 86.004 117.109 86.004Z" fill="url(#paint0_linear_2200_1744)"/>
<path d="M117.109 86.004C169.896 86.004 212.688 74.2316 212.688 59.7096C212.688 45.1877 169.896 33.4153 117.109 33.4153C64.3219 33.4153 21.5295 45.1877 21.5295 59.7096C21.5295 74.2316 64.3219 86.004 117.109 86.004Z" fill="white" fill-opacity="0.55"/>
<path d="M117.109 86.4111C91.5431 86.4111 67.5026 83.6707 49.4159 78.6949C31.1704 73.6755 21.1221 66.9332 21.1221 59.7085C21.1221 52.4839 31.1704 45.7427 49.4159 40.7222C67.5026 35.7464 91.5431 33.0063 117.109 33.0063C142.675 33.0063 166.715 35.7464 184.802 40.7222C203.047 45.7416 213.096 52.4842 213.096 59.7085C213.096 66.9328 203.047 73.6744 184.802 78.6949C166.715 83.6707 142.674 86.4111 117.109 86.4111ZM117.109 33.8224C91.6142 33.8224 67.6502 36.5526 49.6318 41.5094C40.8942 43.9129 34.0412 46.7078 29.2623 49.8159C24.4011 52.9779 21.9364 56.3065 21.9364 59.7096C21.9364 63.1127 24.4011 66.4417 29.2623 69.6032C34.0412 72.7114 40.8942 75.5062 49.6318 77.9101C67.6502 82.8677 91.6128 85.5968 117.109 85.5968C142.605 85.5968 166.567 82.867 184.586 77.9101C193.323 75.5062 200.176 72.7114 204.955 69.6032C209.816 66.4417 212.281 63.1127 212.281 59.7096C212.281 56.3065 209.816 52.9779 204.955 49.8159C200.176 46.7078 193.323 43.9129 184.586 41.5094C166.567 36.5526 142.603 33.8238 117.109 33.8238V33.8224Z" fill="black"/>
<path d="M161.086 44.3844C161.086 56.0086 140.94 58.7469 119.931 59.2444C97.0415 59.7862 73.1328 55.8307 73.1328 44.3844C73.1657 32.7424 77.8136 21.5885 86.0574 13.368C94.3012 5.14742 105.468 0.531128 117.11 0.531128C128.752 0.531128 139.919 5.14742 148.163 13.368C156.407 21.5885 161.055 32.7424 161.088 44.3844H161.086Z" fill="white"/>
<path d="M155.378 42.0832C155.273 42.0831 155.171 42.0419 155.095 41.9683C155.019 41.8947 154.975 41.7944 154.972 41.6887C154.848 37.5161 154.023 33.394 152.533 29.4949C152.494 29.394 152.497 29.282 152.541 29.1833C152.585 29.0847 152.666 29.0077 152.767 28.969C152.868 28.9304 152.98 28.9335 153.079 28.9775C153.177 29.0215 153.254 29.1029 153.293 29.2037C154.816 33.188 155.659 37.4 155.786 41.6637C155.789 41.7716 155.749 41.8764 155.675 41.955C155.601 42.0337 155.499 42.0798 155.391 42.0832H155.378Z" fill="black"/>
<path d="M149.297 22.6697C149.229 22.6698 149.163 22.653 149.103 22.6207C149.043 22.5884 148.993 22.5416 148.956 22.4847C143.583 14.2834 135.221 8.50349 125.65 6.37588C125.547 6.35043 125.458 6.28583 125.402 6.19583C125.346 6.10583 125.327 5.99752 125.35 5.89394C125.372 5.79035 125.435 5.69965 125.523 5.64113C125.611 5.58261 125.719 5.56088 125.823 5.58057C135.603 7.75426 144.147 13.6599 149.637 22.04C149.678 22.1014 149.7 22.1724 149.703 22.2457C149.706 22.3189 149.69 22.3916 149.655 22.4561C149.62 22.5206 149.568 22.5745 149.505 22.6121C149.442 22.6497 149.37 22.6696 149.297 22.6697Z" fill="black"/>
<path d="M115.666 59.7015C96.223 59.7015 81.4206 56.4317 75.621 50.7709C73.6988 48.8941 72.7245 46.7451 72.7245 44.3841C72.7081 38.545 73.844 32.76 76.0672 27.3606C78.2903 21.9612 81.557 17.0536 85.6801 12.9189C89.8032 8.78414 94.7017 5.50363 100.095 3.26528C105.488 1.02694 111.27 -0.125244 117.109 -0.125244C122.948 -0.125244 128.73 1.02694 134.123 3.26528C139.516 5.50363 144.414 8.78414 148.538 12.9189C152.661 17.0536 155.927 21.9612 158.15 27.3606C160.374 32.76 161.51 38.545 161.493 44.3841C161.493 49.8673 157.121 53.9026 148.499 56.3779C141.865 58.2825 132.523 59.3531 119.94 59.6509C118.493 59.6847 117.068 59.7015 115.666 59.7015ZM117.108 0.813278C105.556 0.826306 94.4817 5.42089 86.3135 13.589C78.1452 21.7572 73.5506 32.8319 73.5374 44.3834C73.5374 46.5169 74.4294 48.4697 76.1888 50.1876C82.2511 56.1082 98.5977 59.3404 119.92 58.837C137.418 58.4231 160.681 56.4739 160.681 44.3845C160.668 32.8327 156.073 21.7577 147.904 13.5895C139.736 5.42129 128.661 0.826896 117.109 0.814333L117.108 0.813278Z" fill="black"/>
<path d="M45.9428 63.2291C49.0968 63.2291 51.6535 60.6723 51.6535 57.5184C51.6535 54.3645 49.0968 51.8077 45.9428 51.8077C42.7889 51.8077 40.2322 54.3645 40.2322 57.5184C40.2322 60.6723 42.7889 63.2291 45.9428 63.2291Z" fill="white"/>
<path d="M45.9428 63.6363C44.7328 63.6363 43.55 63.2775 42.5439 62.6052C41.5378 61.933 40.7537 60.9775 40.2906 59.8597C39.8276 58.7418 39.7064 57.5117 39.9425 56.3249C40.1786 55.1382 40.7612 54.0481 41.6168 53.1925C42.4724 52.3369 43.5625 51.7542 44.7493 51.5182C45.936 51.2821 47.1661 51.4033 48.284 51.8663C49.4019 52.3294 50.3573 53.1135 51.0296 54.1196C51.7018 55.1256 52.0606 56.3085 52.0606 57.5185C52.0587 59.1404 51.4136 60.6954 50.2667 61.8424C49.1198 62.9893 47.5648 63.6344 45.9428 63.6363ZM45.9428 52.2146C44.8938 52.2146 43.8683 52.5257 42.9961 53.1085C42.1239 53.6912 41.4441 54.5196 41.0426 55.4888C40.6412 56.4579 40.5362 57.5243 40.7408 58.5532C40.9455 59.582 41.4506 60.5271 42.1924 61.2689C42.9341 62.0106 43.8792 62.5158 44.908 62.7204C45.9369 62.9251 47.0033 62.82 47.9725 62.4186C48.9416 62.0172 49.77 61.3373 50.3528 60.4651C50.9356 59.5929 51.2467 58.5675 51.2467 57.5185C51.2453 56.1122 50.686 54.764 49.6916 53.7696C48.6973 52.7752 47.349 52.216 45.9428 52.2146Z" fill="black"/>
<path d="M117.109 79.5837C120.263 79.5837 122.82 77.0269 122.82 73.873C122.82 70.7191 120.263 68.1624 117.109 68.1624C113.955 68.1624 111.398 70.7191 111.398 73.873C111.398 77.0269 113.955 79.5837 117.109 79.5837Z" fill="white"/>
<path d="M117.109 79.9909C115.899 79.9909 114.716 79.6321 113.71 78.9599C112.704 78.2876 111.92 77.3322 111.457 76.2143C110.994 75.0964 110.873 73.8663 111.109 72.6795C111.345 71.4928 111.927 70.4027 112.783 69.5471C113.639 68.6915 114.729 68.1089 115.916 67.8728C117.102 67.6367 118.332 67.7579 119.45 68.2209C120.568 68.684 121.524 69.4681 122.196 70.4742C122.868 71.4803 123.227 72.6631 123.227 73.8731C123.225 75.4951 122.58 77.0501 121.433 78.197C120.286 79.3439 118.731 79.989 117.109 79.9909ZM117.109 68.5696C116.06 68.5696 115.035 68.8806 114.163 69.4634C113.29 70.0461 112.611 70.8744 112.209 71.8435C111.808 72.8126 111.703 73.879 111.907 74.9077C112.112 75.9365 112.617 76.8815 113.359 77.6232C114.101 78.3649 115.046 78.8701 116.074 79.0747C117.103 79.2793 118.17 79.1743 119.139 78.7729C120.108 78.3715 120.936 77.6917 121.519 76.8196C122.102 75.9474 122.413 74.922 122.413 73.8731C122.411 72.467 121.852 71.1188 120.858 70.1246C119.863 69.1303 118.515 68.571 117.109 68.5696Z" fill="black"/>
<path d="M188.262 63.2291C191.416 63.2291 193.973 60.6723 193.973 57.5184C193.973 54.3645 191.416 51.8077 188.262 51.8077C185.109 51.8077 182.552 54.3645 182.552 57.5184C182.552 60.6723 185.109 63.2291 188.262 63.2291Z" fill="white"/>
<path d="M188.262 63.6363C187.052 63.6363 185.87 63.2775 184.863 62.6052C183.857 61.933 183.073 60.9775 182.61 59.8597C182.147 58.7418 182.026 57.5117 182.262 56.3249C182.498 55.1382 183.081 54.0481 183.936 53.1925C184.792 52.3369 185.882 51.7542 187.069 51.5182C188.256 51.2821 189.486 51.4033 190.604 51.8663C191.721 52.3294 192.677 53.1135 193.349 54.1196C194.021 55.1256 194.38 56.3085 194.38 57.5185C194.378 59.1404 193.733 60.6954 192.586 61.8424C191.439 62.9893 189.884 63.6344 188.262 63.6363ZM188.262 52.2146C187.213 52.2146 186.188 52.5257 185.316 53.1085C184.443 53.6912 183.764 54.5196 183.362 55.4888C182.961 56.4579 182.856 57.5243 183.06 58.5532C183.265 59.582 183.77 60.5271 184.512 61.2689C185.254 62.0106 186.199 62.5158 187.228 62.7204C188.256 62.9251 189.323 62.82 190.292 62.4186C191.261 62.0172 192.09 61.3373 192.672 60.4651C193.255 59.5929 193.566 58.5675 193.566 57.5185C193.565 56.1122 193.006 54.764 192.011 53.7696C191.017 52.7752 189.669 52.216 188.262 52.2146Z" fill="black"/>
<path d="M157.914 73.873C161.067 73.873 163.624 71.3162 163.624 68.1623C163.624 65.0084 161.067 62.4517 157.914 62.4517C154.76 62.4517 152.203 65.0084 152.203 68.1623C152.203 71.3162 154.76 73.873 157.914 73.873Z" fill="white"/>
<path d="M157.913 74.2802C156.703 74.2802 155.521 73.9214 154.515 73.2492C153.509 72.5769 152.724 71.6215 152.261 70.5036C151.798 69.3857 151.677 68.1556 151.913 66.9689C152.149 65.7821 152.732 64.692 153.588 63.8364C154.443 62.9808 155.533 62.3982 156.72 62.1621C157.907 61.9261 159.137 62.0472 160.255 62.5102C161.373 62.9733 162.328 63.7574 163 64.7635C163.672 65.7696 164.031 66.9524 164.031 68.1624C164.029 69.7844 163.384 71.3394 162.237 72.4863C161.09 73.6332 159.535 74.2783 157.913 74.2802ZM157.913 62.8585C156.864 62.8584 155.839 63.1694 154.967 63.7522C154.094 64.335 153.415 65.1633 153.013 66.1324C152.612 67.1016 152.507 68.168 152.711 69.1969C152.916 70.2258 153.421 71.1709 154.163 71.9127C154.904 72.6545 155.849 73.1596 156.878 73.3643C157.907 73.569 158.974 73.464 159.943 73.0626C160.912 72.6611 161.74 71.9813 162.323 71.1091C162.906 70.2369 163.217 69.2114 163.217 68.1624C163.216 66.7562 162.656 65.408 161.662 64.4136C160.668 63.4193 159.32 62.86 157.913 62.8585Z" fill="black"/>
<path d="M76.3042 74.6505C79.4581 74.6505 82.0148 72.0937 82.0148 68.9398C82.0148 65.7859 79.4581 63.2291 76.3042 63.2291C73.1503 63.2291 70.5935 65.7859 70.5935 68.9398C70.5935 72.0937 73.1503 74.6505 76.3042 74.6505Z" fill="white"/>
<path d="M76.3041 75.058C75.0941 75.058 73.9113 74.6992 72.9052 74.027C71.8992 73.3548 71.115 72.3993 70.652 71.2814C70.1889 70.1635 70.0678 68.9334 70.3038 67.7467C70.5399 66.5599 71.1226 65.4699 71.9782 64.6143C72.8337 63.7587 73.9238 63.176 75.1106 62.9399C76.2973 62.7039 77.5274 62.825 78.6453 63.2881C79.7632 63.7511 80.7187 64.5353 81.3909 65.5413C82.0631 66.5474 82.4219 67.7302 82.4219 68.9402C82.4201 70.5622 81.7749 72.1172 80.628 73.2641C79.4811 74.411 77.9261 75.0562 76.3041 75.058ZM76.3041 63.6363C75.255 63.636 74.2294 63.9468 73.3569 64.5294C72.4845 65.112 71.8044 65.9402 71.4027 66.9094C71.001 67.8785 70.8957 68.945 71.1002 69.974C71.3047 71.003 71.8097 71.9482 72.5514 72.6901C73.2932 73.432 74.2383 73.9373 75.2672 74.1421C76.2961 74.3468 77.3626 74.2419 78.3319 73.8404C79.3011 73.439 80.1296 72.7591 80.7124 71.8868C81.2952 71.0145 81.6063 69.989 81.6062 68.9399C81.6047 67.534 81.0457 66.1861 80.0517 65.1918C79.0577 64.1976 77.71 63.6382 76.3041 63.6363Z" fill="black"/>
<path d="M177.663 39.3651C177.237 40.6541 176.367 41.7494 175.207 42.4547C174.047 43.16 172.674 43.4291 171.334 43.2138C169.993 42.9985 168.773 42.3129 167.893 41.2799C167.012 40.2469 166.528 38.934 166.528 37.5765C166.528 37.4489 166.533 37.324 166.541 37.1992C170.441 37.8507 174.157 38.5726 177.663 39.3651Z" fill="white"/>
<path d="M172.238 43.6936C170.616 43.692 169.061 43.0469 167.914 41.9C166.767 40.753 166.122 39.1978 166.12 37.5758C166.12 37.4393 166.126 37.3054 166.135 37.1718L166.164 36.7228L166.608 36.797C170.53 37.452 174.279 38.1823 177.753 38.967L178.191 39.0662L178.05 39.492C177.648 40.7156 176.869 41.7809 175.826 42.5355C174.782 43.2901 173.526 43.6954 172.238 43.6936ZM166.936 37.6781C166.959 38.8912 167.398 40.0596 168.179 40.9885C168.96 41.9173 170.035 42.5504 171.226 42.7822C172.417 43.0139 173.652 42.8304 174.724 42.2621C175.796 41.6938 176.641 40.7751 177.117 39.6593C173.925 38.9473 170.505 38.2818 166.936 37.6781Z" fill="black"/>
<path d="M67.0763 37.5765C67.0759 38.9225 66.6002 40.2251 65.7331 41.2546C64.866 42.284 63.6632 42.9742 62.3369 43.2034C61.0105 43.4325 59.6459 43.1859 58.4837 42.507C57.3214 41.8281 56.4363 40.7606 55.9844 39.4927C59.4772 38.6946 63.1791 37.9618 67.0682 37.3022C67.0735 37.3919 67.0763 37.484 67.0763 37.5765Z" fill="white"/>
<path d="M61.366 43.6936C60.1035 43.6918 58.8723 43.3005 57.8404 42.5732C56.8084 41.8458 56.026 40.8178 55.5998 39.6294L55.4458 39.1977L55.8927 39.0957C59.4027 38.2937 63.1395 37.5553 66.999 36.901L67.4462 36.8251L67.4737 37.2776C67.4796 37.3753 67.4824 37.4759 67.4824 37.5764C67.4806 39.1981 66.8356 40.7528 65.689 41.8996C64.5423 43.0464 62.9877 43.6915 61.366 43.6936ZM56.5417 39.7834C57.0382 40.8678 57.8857 41.7533 58.9473 42.2969C60.0089 42.8404 61.2227 43.0104 62.3927 42.7793C63.5628 42.5482 64.6208 41.9295 65.396 41.0232C66.1713 40.1168 66.6184 38.9756 66.6653 37.7839C63.1578 38.3865 59.7571 39.0581 56.5417 39.7834Z" fill="black"/>
<path d="M125.993 236.933L73.7886 207.195L114.187 136.277L150.285 156.84L157.216 182.121L125.993 236.933Z" fill="white"/>
<g opacity="0.3">
<path d="M134.461 201.609C136.178 201.609 137.57 200.217 137.57 198.499C137.57 196.782 136.178 195.39 134.461 195.39C132.744 195.39 131.351 196.782 131.351 198.499C131.351 200.217 132.744 201.609 134.461 201.609Z" fill="url(#paint1_linear_2200_1744)"/>
<path d="M134.461 201.609C136.178 201.609 137.57 200.217 137.57 198.499C137.57 196.782 136.178 195.39 134.461 195.39C132.744 195.39 131.351 196.782 131.351 198.499C131.351 200.217 132.744 201.609 134.461 201.609Z" fill="white" fill-opacity="0.55"/>
</g>
<g opacity="0.3">
<path d="M101.645 185.231C103.362 185.231 104.754 183.839 104.754 182.121C104.754 180.404 103.362 179.012 101.645 179.012C99.9276 179.012 98.5354 180.404 98.5354 182.121C98.5354 183.839 99.9276 185.231 101.645 185.231Z" fill="url(#paint2_linear_2200_1744)"/>
<path d="M101.645 185.231C103.362 185.231 104.754 183.839 104.754 182.121C104.754 180.404 103.362 179.012 101.645 179.012C99.9276 179.012 98.5354 180.404 98.5354 182.121C98.5354 183.839 99.9276 185.231 101.645 185.231Z" fill="white" fill-opacity="0.55"/>
</g>
<path d="M126.144 237.488L73.2334 207.347L114.035 135.721L150.633 156.571L157.653 182.178L126.144 237.488ZM74.3437 207.043L125.84 236.378L156.781 182.066L149.939 157.11L114.34 136.832L74.3437 207.043Z" fill="black"/>
<g opacity="0.3">
<path d="M150.285 156.84L141.11 172.946L157.216 182.121L150.285 156.84Z" fill="url(#paint3_linear_2200_1744)"/>
<path d="M150.285 156.84L141.11 172.946L157.216 182.121L150.285 156.84Z" fill="white" fill-opacity="0.55"/>
</g>
<path d="M157.216 182.528C157.146 182.528 157.076 182.51 157.015 182.475L140.908 173.3C140.815 173.246 140.746 173.158 140.718 173.054C140.689 172.95 140.703 172.838 140.757 172.745L149.932 156.637C149.971 156.567 150.031 156.511 150.103 156.475C150.175 156.439 150.256 156.425 150.336 156.435C150.416 156.445 150.491 156.478 150.552 156.531C150.613 156.584 150.656 156.654 150.678 156.731L157.609 182.011C157.626 182.072 157.628 182.135 157.616 182.197C157.604 182.258 157.578 182.316 157.54 182.366C157.502 182.415 157.453 182.456 157.397 182.483C157.341 182.511 157.279 182.526 157.216 182.526V182.528ZM141.665 172.794L156.564 181.281L150.152 157.895L141.665 172.794Z" fill="black"/>
<path d="M112.096 178.03C113.452 178.03 114.55 176.931 114.55 175.576C114.55 174.221 113.452 173.122 112.096 173.122C110.741 173.122 109.642 174.221 109.642 175.576C109.642 176.931 110.741 178.03 112.096 178.03Z" fill="black"/>
<path d="M135.116 188.497C136.471 188.497 137.57 187.398 137.57 186.043C137.57 184.687 136.471 183.588 135.116 183.588C133.76 183.588 132.662 184.687 132.662 186.043C132.662 187.398 133.76 188.497 135.116 188.497Z" fill="black"/>
<path d="M124.685 203.549C124.579 203.549 124.478 203.508 124.402 203.434C124.326 203.36 124.281 203.259 124.279 203.153C124.227 201.191 123.676 199.274 122.677 197.584C121.677 195.894 120.263 194.487 118.568 193.497C116.873 192.506 114.953 191.965 112.99 191.924C111.027 191.883 109.087 192.344 107.352 193.263C107.304 193.289 107.252 193.306 107.198 193.312C107.144 193.318 107.09 193.313 107.038 193.298C106.986 193.283 106.937 193.257 106.895 193.223C106.853 193.188 106.819 193.146 106.793 193.098C106.768 193.05 106.752 192.997 106.748 192.943C106.743 192.889 106.749 192.835 106.766 192.783C106.782 192.731 106.809 192.684 106.844 192.642C106.88 192.601 106.923 192.567 106.971 192.543C108.829 191.56 110.906 191.067 113.007 191.111C115.108 191.155 117.163 191.735 118.978 192.795C120.792 193.855 122.306 195.361 123.376 197.17C124.446 198.978 125.037 201.03 125.092 203.131C125.095 203.239 125.055 203.343 124.981 203.422C124.907 203.5 124.804 203.546 124.697 203.549H124.685Z" fill="black"/>
<path d="M114.232 173.065C112.91 173.048 111.62 172.655 110.513 171.932C110.426 171.869 110.367 171.775 110.35 171.669C110.332 171.563 110.357 171.454 110.419 171.366C110.481 171.279 110.575 171.219 110.681 171.201C110.786 171.182 110.895 171.206 110.983 171.267C111.016 171.29 113.404 172.929 116.073 171.91C116.173 171.874 116.283 171.879 116.38 171.924C116.476 171.968 116.551 172.049 116.589 172.148C116.627 172.247 116.625 172.358 116.582 172.455C116.54 172.553 116.462 172.63 116.363 172.67C115.683 172.931 114.96 173.065 114.232 173.065Z" fill="black"/>
<path d="M139.369 184.765C139.324 184.765 139.278 184.758 139.235 184.743C135.803 183.547 135.413 180.9 135.398 180.788C135.383 180.681 135.412 180.572 135.478 180.486C135.543 180.4 135.641 180.344 135.748 180.329C135.855 180.315 135.964 180.343 136.05 180.409C136.136 180.475 136.192 180.572 136.207 180.679C136.221 180.775 136.568 182.95 139.505 183.974C139.596 184.006 139.672 184.068 139.721 184.151C139.77 184.234 139.788 184.331 139.772 184.426C139.756 184.521 139.707 184.607 139.633 184.669C139.56 184.731 139.467 184.765 139.371 184.765H139.369Z" fill="black"/>
<path d="M4.15478 90.0857C4.10133 90.0857 4.0484 90.0752 3.99902 90.0547C3.94964 90.0343 3.90478 90.0043 3.867 89.9665C3.82922 89.9286 3.79927 89.8838 3.77884 89.8344C3.75842 89.785 3.74793 89.732 3.74798 89.6786V78.1922C3.74638 78.1377 3.75572 78.0835 3.77545 78.0327C3.79519 77.982 3.82491 77.9357 3.86286 77.8966C3.90081 77.8575 3.94621 77.8264 3.99638 77.8052C4.04656 77.784 4.10048 77.7731 4.15495 77.7731C4.20943 77.7731 4.26335 77.784 4.31352 77.8052C4.3637 77.8264 4.4091 77.8575 4.44705 77.8966C4.485 77.9357 4.51472 77.982 4.53446 78.0327C4.55419 78.0835 4.56353 78.1377 4.56193 78.1922V89.6786C4.56198 89.7321 4.55148 89.785 4.53103 89.8344C4.51059 89.8839 4.4806 89.9288 4.44278 89.9666C4.40496 90.0044 4.36006 90.0344 4.31064 90.0548C4.26122 90.0753 4.20826 90.0858 4.15478 90.0857Z" fill="black"/>
<path d="M7.90289 84.3427H0.407152C0.299168 84.3427 0.195608 84.2998 0.119252 84.2235C0.0428962 84.1471 0 84.0436 0 83.9356C0 83.8276 0.0428962 83.7241 0.119252 83.6477C0.195608 83.5713 0.299168 83.5284 0.407152 83.5284H7.90289C8.01087 83.5284 8.11444 83.5713 8.19079 83.6477C8.26715 83.7241 8.31004 83.8276 8.31004 83.9356C8.31004 84.0436 8.26715 84.1471 8.19079 84.2235C8.11444 84.2998 8.01087 84.3427 7.90289 84.3427Z" fill="black"/>
<path d="M199.673 154.06C199.565 154.06 199.462 154.017 199.385 153.941C199.309 153.864 199.266 153.761 199.266 153.653V136.181C199.266 136.073 199.309 135.969 199.385 135.893C199.462 135.816 199.565 135.773 199.673 135.773C199.781 135.773 199.885 135.816 199.961 135.893C200.038 135.969 200.08 136.073 200.08 136.181V153.653C200.08 153.761 200.037 153.864 199.961 153.941C199.885 154.017 199.781 154.06 199.673 154.06Z" fill="black"/>
<path d="M205.375 145.324H193.973C193.865 145.324 193.762 145.281 193.685 145.205C193.609 145.128 193.566 145.025 193.566 144.917C193.566 144.809 193.609 144.705 193.685 144.629C193.762 144.552 193.865 144.51 193.973 144.51H205.375C205.483 144.51 205.587 144.552 205.663 144.629C205.74 144.705 205.783 144.809 205.783 144.917C205.783 145.025 205.74 145.128 205.663 145.205C205.587 145.281 205.483 145.324 205.375 145.324Z" fill="black"/>
<path d="M227.425 98.8218C227.372 98.8219 227.319 98.8114 227.27 98.791C227.22 98.7705 227.175 98.7405 227.137 98.7027C227.1 98.6649 227.07 98.62 227.049 98.5706C227.029 98.5211 227.018 98.4682 227.018 98.4147V89.6785C227.018 89.5705 227.061 89.467 227.138 89.3906C227.214 89.3143 227.317 89.2714 227.425 89.2714C227.533 89.2714 227.637 89.3143 227.713 89.3906C227.79 89.467 227.833 89.5705 227.833 89.6785V98.4147C227.833 98.4682 227.822 98.5211 227.802 98.5706C227.781 98.62 227.751 98.6649 227.713 98.7027C227.676 98.7405 227.631 98.7705 227.581 98.791C227.532 98.8114 227.479 98.8219 227.425 98.8218Z" fill="black"/>
<path d="M230.276 94.4539H224.575C224.522 94.4539 224.469 94.4434 224.419 94.423C224.37 94.4025 224.325 94.3725 224.287 94.3347C224.249 94.2969 224.219 94.252 224.199 94.2026C224.178 94.1532 224.168 94.1003 224.168 94.0468C224.168 93.9933 224.178 93.9404 224.199 93.891C224.219 93.8416 224.249 93.7967 224.287 93.7589C224.325 93.7211 224.37 93.6911 224.419 93.6706C224.469 93.6502 224.522 93.6396 224.575 93.6396H230.276C230.384 93.6396 230.488 93.6825 230.564 93.7589C230.641 93.8353 230.683 93.9388 230.683 94.0468C230.683 94.1548 230.641 94.2583 230.564 94.3347C230.488 94.411 230.384 94.4539 230.276 94.4539Z" fill="black"/>
</g>
<defs>
<linearGradient id="paint0_linear_2200_1744" x1="21.5295" y1="59.7096" x2="212.688" y2="59.7096" gradientUnits="userSpaceOnUse">
<stop stop-color="#FEAC5E"/>
<stop offset="0.5" stop-color="#C779D0"/>
<stop offset="1" stop-color="#4BC0C8"/>
</linearGradient>
<linearGradient id="paint1_linear_2200_1744" x1="131.351" y1="198.499" x2="137.57" y2="198.499" gradientUnits="userSpaceOnUse">
<stop stop-color="#FEAC5E"/>
<stop offset="0.5" stop-color="#C779D0"/>
<stop offset="1" stop-color="#4BC0C8"/>
</linearGradient>
<linearGradient id="paint2_linear_2200_1744" x1="98.5354" y1="182.121" x2="104.754" y2="182.121" gradientUnits="userSpaceOnUse">
<stop stop-color="#FEAC5E"/>
<stop offset="0.5" stop-color="#C779D0"/>
<stop offset="1" stop-color="#4BC0C8"/>
</linearGradient>
<linearGradient id="paint3_linear_2200_1744" x1="141.11" y1="169.481" x2="157.216" y2="169.481" gradientUnits="userSpaceOnUse">
<stop stop-color="#FEAC5E"/>
<stop offset="0.5" stop-color="#C779D0"/>
<stop offset="1" stop-color="#4BC0C8"/>
</linearGradient>
<clipPath id="clip0_2200_1744">
<rect width="230.683" height="255" fill="white"/>
</clipPath>
</defs>
</svg>
