<svg width="80" height="80" viewBox="0 0 80 80" fill="none" xmlns="http://www.w3.org/2000/svg">
<path fill-rule="evenodd" clip-rule="evenodd" d="M40 0.000244141C62.0917 0.000244141 80 17.9086 80 40.0001C80 62.0916 62.0917 80.0001 40 80.0001C17.9085 80.0001 0 62.0916 0 40.0001C0 17.9086 17.9085 0.000244141 40 0.000244141Z" fill="url(#paint0_linear_2158_1585)"/>
<path fill-rule="evenodd" clip-rule="evenodd" d="M40 0.000244141C62.0917 0.000244141 80 17.9086 80 40.0001C80 62.0916 62.0917 80.0001 40 80.0001C17.9085 80.0001 0 62.0916 0 40.0001C0 17.9086 17.9085 0.000244141 40 0.000244141Z" fill="white" fill-opacity="0.55"/>
<path fill-rule="evenodd" clip-rule="evenodd" d="M44.1699 28.0002V37.7659V46.5182V53.0756L49.4148 49.1835L54.6601 53.0756V46.5182V37.7659V28.0002H63V45.3442C63 49.1037 61.4725 52.5187 59.0128 54.992C56.5527 57.4651 53.155 59.0002 49.4157 59.0002C45.7665 59.0002 42.4441 57.539 39.9998 55.1724C37.5559 57.539 34.2333 59.0002 30.5855 59.0002C26.8448 59.0002 23.4471 57.4651 20.987 54.992C18.5273 52.5187 17 49.1037 17 45.3442V28.0002H25.3399V37.7659H25.3393V49.1835L30.5841 53.0756L35.8293 49.1835C35.8293 41.0748 35.8301 36.109 35.8301 28.0002H44.1699Z" fill="black"/>
<defs>
<linearGradient id="paint0_linear_2158_1585" x1="0" y1="40.0002" x2="80" y2="40.0002" gradientUnits="userSpaceOnUse">
<stop stop-color="#FEAC5E"/>
<stop offset="0.5" stop-color="#C779D0"/>
<stop offset="1" stop-color="#4BC0C8"/>
</linearGradient>
</defs>
</svg>
