<svg width="24" height="24" viewBox="0 0 24 24" fill="none" xmlns="http://www.w3.org/2000/svg">
<path fill-rule="evenodd" clip-rule="evenodd" d="M12 7.94995C9.51472 7.94995 7.5 9.96467 7.5 12.45C7.5 14.9352 9.51472 16.95 12 16.95C14.4853 16.95 16.5 14.9352 16.5 12.45C16.5 9.96467 14.4853 7.94995 12 7.94995ZM9 12.45C9 10.7931 10.3431 9.44995 12 9.44995C13.6569 9.44995 15 10.7931 15 12.45C15 14.1068 13.6569 15.45 12 15.45C10.3431 15.45 9 14.1068 9 12.45Z" fill="black"/>
<path fill-rule="evenodd" clip-rule="evenodd" d="M9.92705 2.25C9.07481 2.25 8.29572 2.7315 7.91459 3.49377L7.03647 5.25H6C3.92893 5.25 2.25 6.92893 2.25 9V17C2.25 19.0711 3.92893 20.75 6 20.75H18C20.0711 20.75 21.75 19.0711 21.75 17V9C21.75 6.92893 20.0711 5.25 18 5.25H16.9635L16.0854 3.49377C15.7043 2.73151 14.9252 2.25 14.0729 2.25H9.92705ZM9.25623 4.16459C9.38327 3.9105 9.64297 3.75 9.92705 3.75H14.0729C14.357 3.75 14.6167 3.9105 14.7438 4.16459L15.691 6.05902C15.9027 6.4825 16.3356 6.75 16.809 6.75H18C19.2426 6.75 20.25 7.75736 20.25 9V17C20.25 18.2426 19.2426 19.25 18 19.25H6C4.75736 19.25 3.75 18.2426 3.75 17V9C3.75 7.75736 4.75736 6.75 6 6.75H7.19098C7.66445 6.75 8.09728 6.4825 8.30902 6.05902L9.25623 4.16459Z" fill="black"/>
</svg>
